<svg xmlns="http://www.w3.org/2000/svg" width="88" height="63" viewBox="0 0 88 63"><path fill="#ED1C24" d="M63.194 26.894L53.532 3.139h11.135c1.15 0 2.083-.427 2.083-1.577S65.817.083 64.667.083h-12.5A2 2 0 0 0 50.458 1a1.958 1.958 0 0 0-.208 1.958l6.052 14.858-20.33 3.972-3.464-7.987c-.34-.755-1.815-1.21-2.642-1.218H23c-1.15 0-2.083.642-2.083 1.792s.932 1.73 2.083 1.73h6.866l2.887 7.113-13.92 17.915c-.492.63-1.819 1.943-1.513 3.023.535.751.717.838 1.513.836h15.028c-1.108 8.31-7.805 15.145-16.36 14.397-8.554-.748-14.377-8.566-13.994-16.313.382-7.747 7.57-14.634 15.326-14.629 1.15 0 2.084-.402 2.084-1.553 0-1.15-.933-1.81-2.084-1.81C8.737 25.033.414 32.987.006 43.075-.4 53.164 7.252 61.764 17.32 62.529c10.067.765 19.205-7.503 20.327-17.537h4.212c.704.003 2.52.206 2.882-.836.362-1.042-.15-1.922-.433-2.567L37.375 24.78l19.375-3.905c.198-.04.396-.083.555-.207l2.84 7.422c-8.24 4.516-11.443 13.523-7.978 22.258 3.464 8.735 12.33 13.204 21.425 10.844 9.096-2.36 14.681-10.285 13.462-19.603-1.219-9.318-8.638-15.642-18.035-15.582-1.68.015-4.216.405-5.825.887zM23 41.75L34.417 27.5 40.5 41.75H23zm45.833 16.667a14.542 14.542 0 0 1-7.25-27.084l5.334 13.375c.31.786.915 1.545 1.76 1.538.26.055.42.055.681 0 .515-.203.61-.168.823-.678.212-.51.219-.976 0-1.483l-5.689-13.79c.19-.184 1.3-1.045 4.341-1.045 8.054 0 14.584 6.53 14.584 14.583 0 8.054-6.53 14.584-14.584 14.584z"/></svg>