<svg xmlns="http://www.w3.org/2000/svg" width="53" height="44" viewBox="0 0 53 44"><path fill="#ed1c24" d="M51.233 42.24H27.454a6.176 6.176 0 0 1 6.113-5.28h5.3a.882.882 0 0 0 .883-.88V8.8h11.483zM1.767 8.8h1.766v30.8c0 .486.395.88.883.88h18.542a2.648 2.648 0 0 1 2.486 1.76H1.767zM5.3 5.28h17.667a2.645 2.645 0 0 1 2.65 2.64V39.6a4.41 4.41 0 0 0-2.65-.88H5.3zm28.267-3.52h4.416V35.2h-4.416a7.946 7.946 0 0 0-6.184 2.953V7.92c.004-3.4 2.77-6.156 6.184-6.16zm18.55 5.28H39.75V.88a.882.882 0 0 0-.883-.88h-5.3a7.959 7.959 0 0 0-7.365 4.948 4.4 4.4 0 0 0-3.235-1.428H4.417a.882.882 0 0 0-.884.88v2.64H.883A.882.882 0 0 0 0 7.92v35.2c0 .486.395.88.883.88h51.234a.882.882 0 0 0 .883-.88V7.92a.882.882 0 0 0-.883-.88z"/><path fill="#ed1c24" d="M7 9h17v2H7zM7 14h7v2H7zM8 20h11v2H8zM8 24h3v2H8zM16 14h8v2h-8zM20 20h3v2h-3zM12 24h11v2H12z"/></svg>