<svg xmlns="http://www.w3.org/2000/svg" width="63" height="40" viewBox="0 0 63 40"><path fill="#ed1c24" d="M17.4 27.782a.86.86 0 0 0-.118.697l2.111 8.19h-1.466l-3.574-10.023a.12.12 0 0 0-.011-.025l3.79-3.182a1.36 1.36 0 0 1 .876-.32h1.519zm18.76-2.255a.182.182 0 0 0-.014.029l-3.82 11.113h-1.794l2.281-13.55h1.032c.309 0 .603.134.806.37zm25.822-2.02a1.073 1.073 0 0 1 .064-.586l.129-.313a2.042 2.042 0 0 0-.11-1.769l-.418-.735 1.163-1.986c.232-.396.236-.888.01-1.288a1.255 1.255 0 0 0-1.098-.642h-.02c-1.31.15-2.56.65-3.62 1.447a.863.863 0 0 0-.317.897c.083.337.357.59.696.64a.825.825 0 0 0 .626-.159c.54-.392 1.135-.7 1.766-.91l-.912 1.555a.871.871 0 0 0-.005.866l.665 1.17a.294.294 0 0 1 .015.254l-.129.314a2.831 2.831 0 0 0-.17 1.538l.99 5.752a.289.289 0 0 1-.137.297l-1.018.585a.283.283 0 0 1-.333-.04.849.849 0 0 0-.228-.163 13.061 13.061 0 0 1-3.773-2.634 17.31 17.31 0 0 1-2.33-3.031 8.254 8.254 0 0 1-.953-3.862.865.865 0 0 0-.245-.61.84.84 0 0 0-.6-.255.853.853 0 0 0-.844.848 9.45 9.45 0 0 0 .266 2.315l-5.702-.22a1.802 1.802 0 0 0-1.758 1.12l-1.611 3.758a.85.85 0 0 0-.071.307l-.417 10.32h-1.912L38.38 25.878a.85.85 0 0 0-.165-.428l-2.251-3.037a2.759 2.759 0 0 0-2.118-1.008H19.008a3.04 3.04 0 0 0-1.952.713l-7.542 6.33a.857.857 0 0 0-.305.66v9.179H7.117v-12.69c0-.295.08-.584.23-.837l3.044-5.093a.86.86 0 0 0 .108-.603L8.646 9.148a1.875 1.875 0 0 1 .011-.752l1.433-6.344a7.777 7.777 0 0 1 3.354-.267c.04.006.082.01.123.01 4.22.014 15.488.005 22.22 0l5.023-.003a2.664 2.664 0 0 1 2.39 1.134l12.054 14.431a.84.84 0 0 0 .597.302l.965.055.058.002a.828.828 0 0 0 .766-.52 3.596 3.596 0 0 1 1.06-1.404.83.83 0 0 0 .563.217.851.851 0 0 0 .843-.856 1.28 1.28 0 0 0-.647-1.118 1.242 1.242 0 0 0-1.277.034 5.437 5.437 0 0 0-1.824 1.903l-.051-.004L44.49 1.818A4.26 4.26 0 0 0 40.734.082H13.637A9.773 9.773 0 0 0 4.85 3.554c-1.865 2.409-2.111 5.169-2.105 7.552.011.799-.034 1.597-.134 2.39-.149.107-.291.216-.424.318l-.057.044A5.921 5.921 0 0 0 .265 16.55a5.491 5.491 0 0 0-.21 2.466c.04.319.1.634.182.944l.007.031c.044.178.089.362.116.545.045.405.306.752.678.903.117.045.242.068.367.068a1.935 1.935 0 0 0 1.163-.557 3.02 3.02 0 0 1 .565-.354c.296-.144.576-.321.833-.529a5.563 5.563 0 0 0 1.736-3.491.855.855 0 0 0-.722-.965.827.827 0 0 0-.627.163.851.851 0 0 0-.324.569 3.892 3.892 0 0 1-1.146 2.41 2.957 2.957 0 0 1-.527.321c-.152.08-.335.176-.523.298a4.204 4.204 0 0 1-.098-.535 3.732 3.732 0 0 1 .121-1.71 4.207 4.207 0 0 1 1.25-1.87c.251-.195.49-.379.734-.537a.863.863 0 0 0 .378-.57c.162-1.007.235-2.027.216-3.047-.004-2.09.2-4.497 1.743-6.491a7.094 7.094 0 0 1 1.992-1.724l-1.16 5.134a3.593 3.593 0 0 0-.022 1.443L8.78 19.06l-2.876 4.813a3.351 3.351 0 0 0-.476 1.725V38.63c.001.756.605 1.37 1.35 1.37h2.768a1.36 1.36 0 0 0 1.35-1.37v-9.118l2.065-1.734 3.493 9.797c.175.484.63.807 1.138.808h2.422a1.223 1.223 0 0 0 1.17-1.534l-2.17-8.428 3.554-5.302h8.533L28.773 36.95c-.06.357.037.722.267.998a1.2 1.2 0 0 0 .925.435h2.702c.515 0 .974-.33 1.142-.824l3.134-9.116L38 38.844c.005.294.125.575.333.78.234.24.553.374.885.376h2.784a1.23 1.23 0 0 0 1.221-1.237l.427-10.566 1.55-3.611a.16.16 0 0 1 .146-.091l6.257.24c.073.124.145.239.218.354l.128.208a12.008 12.008 0 0 0 2.73 3.562 14.485 14.485 0 0 0 4.074 2.864c.63.53 1.519.611 2.232.202l1.02-.586a2.018 2.018 0 0 0 .967-2.08z"/></svg>