<svg width="21" height="21" viewBox="0 0 21 21" xmlns="http://www.w3.org/2000/svg"><title>icon/social/instagram-gray</title><path d="M7 10.5a3.5 3.5 0 1 1 7 0 3.5 3.5 0 0 1-7 0m-2 0a5.5 5.5 0 1 0 11 0 5.5 5.5 0 0 0-11 0m9-5a1.5 1.5 0 1 0 3 0 1.5 1.5 0 0 0-3 0M6.31 18.94c-1.01-.047-1.56-.215-1.924-.357a3.222 3.222 0 0 1-1.193-.776 3.202 3.202 0 0 1-.776-1.192c-.142-.365-.31-.915-.356-1.925C2.01 13.597 2 13.27 2 10.5c0-2.768.01-3.096.06-4.19.047-1.01.215-1.559.357-1.924.189-.485.413-.83.776-1.193a3.198 3.198 0 0 1 1.193-.776c.365-.142.914-.31 1.925-.356C7.404 2.01 7.73 2 10.5 2c2.768 0 3.096.01 4.19.06 1.01.047 1.559.215 1.924.357.485.188.83.413 1.193.776.363.362.587.708.776 1.193.142.365.31.914.356 1.925.051 1.094.061 1.42.061 4.19 0 2.767-.01 3.096-.06 4.19-.047 1.01-.215 1.56-.357 1.924-.189.485-.413.83-.776 1.192a3.215 3.215 0 0 1-1.193.776c-.365.142-.914.31-1.925.356-1.093.051-1.42.061-4.19.061-2.767 0-3.096-.01-4.188-.06M3.623.551a5.142 5.142 0 0 0-1.86 1.211 5.117 5.117 0 0 0-1.212 1.86C.291 4.29.114 5.052.063 6.17.012 7.29 0 7.648 0 10.5c0 2.852.012 3.21.064 4.329.051 1.118.228 1.88.488 2.548.268.69.627 1.277 1.211 1.86a5.146 5.146 0 0 0 1.86 1.211c.669.26 1.43.437 2.549.488 1.12.051 1.477.064 4.328.064 2.853 0 3.21-.012 4.33-.064 1.117-.051 1.88-.228 2.548-.488a5.153 5.153 0 0 0 1.86-1.211 5.153 5.153 0 0 0 1.21-1.86c.26-.668.439-1.43.489-2.548.051-1.121.063-1.478.063-4.329s-.012-3.21-.063-4.329c-.051-1.118-.228-1.88-.488-2.548a5.153 5.153 0 0 0-1.211-1.86 5.146 5.146 0 0 0-1.86-1.211c-.668-.26-1.43-.438-2.548-.488C13.711.013 13.353 0 10.501 0c-2.852 0-3.21.012-4.33.064-1.117.051-1.88.228-2.548.488z" fill="#333" fill-rule="nonzero"/></svg>