<svg xmlns="http://www.w3.org/2000/svg" width="48" height="48" viewBox="0 0 48 48"><path fill="#ed1c24" d="M25 26h-1.5V4.4c-.044-.421-.355-.753-.75-.8H22V2h.75c1.223.049 2.204 1.095 2.25 2.4zM3.39 26H2V4.4C2 3.075 2.933 2 4.085 2H5v1.6h-.915c-.384 0-.695.358-.695.8z"/><path fill="#ed1c24" d="M7.435 1.667c.475 0 .86.37.86.828 0 .458-.384.828-.86.828h-.86c-.475 0-.86-.37-.86-.828 0-.457.385-.828.86-.828zM10 2.5C10 1.12 8.849 0 7.429 0H6.57C5.151 0 4 1.12 4 2.5S5.151 5 6.571 5h.858C8.849 5 10 3.88 10 2.5zM19.435 1.667c.475 0 .86.37.86.828 0 .458-.385.828-.86.828h-.86c-.475 0-.86-.37-.86-.828 0-.457.385-.828.86-.828zM22 2.5C22 1.12 20.849 0 19.429 0h-.858C17.151 0 16 1.12 16 2.5S17.151 5 18.571 5h.858C20.849 5 22 3.88 22 2.5zM3.15 27.23v4.843c.005 4.01 3.176 7.261 7.089 7.265h5.512c3.913-.004 7.084-3.254 7.088-7.265v-5.65c0-.446.353-.808.788-.808.435 0 .787.362.787.808v5.65c-.005 4.902-3.88 8.874-8.663 8.88a.798.798 0 0 0-.787.807v.807a.798.798 0 0 1-.788.808h-1.575a.798.798 0 0 1-.787-.808v-.807a.798.798 0 0 0-.788-.807h-.787c-4.782-.006-8.658-3.978-8.663-8.88V27.23c0-.446.352-.807.787-.807.435 0 .788.361.788.807zm12.703 17.06c.443-.454.692-1.07.692-1.713v-.03c5.333-.43 9.448-4.987 9.455-10.47v-5.654C26 25.085 24.942 24 23.636 24c-1.305 0-2.363 1.085-2.363 2.423v5.654c-.004 3.12-2.471 5.65-5.515 5.654h-5.516c-3.044-.004-5.51-2.533-5.515-5.654V27.23c0-1.338-1.058-2.423-2.363-2.423C1.058 24.808 0 25.893 0 27.23v4.846c.007 5.796 4.588 10.493 10.242 10.5 0 1.338 1.059 2.423 2.364 2.423h1.576c.627 0 1.228-.255 1.671-.71zM41.495 36.625a4.877 4.877 0 0 1 4.87 4.875 4.872 4.872 0 0 1-4.87 4.875 4.872 4.872 0 0 1-4.87-4.875 4.872 4.872 0 0 1 4.87-4.875zM41.5 48a6.507 6.507 0 0 0 6.5-6.5 6.5 6.5 0 1 0-6.5 6.5z"/><path fill="#ed1c24" d="M43.25 41.5a1.75 1.75 0 1 1-3.5 0 1.75 1.75 0 0 1 3.5 0zm1.75 0a3.5 3.5 0 1 0-7 0 3.5 3.5 0 0 0 7 0z"/><path fill="#ed1c24" d="M25.784 48H14.432C13.09 48 12 46.925 12 45.6V44c0-.442.363-.8.81-.8.449 0 .812.358.812.8v1.6c0 .442.363.8.81.8h11.352c1.791 0 3.243-1.433 3.243-3.2V4.8c.003-2.65 2.18-4.797 4.865-4.8h3.243C39.821.003 41.997 2.15 42 4.8v36.8c0 .442-.363.8-.81.8a.805.805 0 0 1-.812-.8V4.8c0-1.767-1.452-3.2-3.243-3.2h-3.243c-1.791 0-3.243 1.433-3.243 3.2v38.4c-.003 2.65-2.18 4.797-4.865 4.8z"/></svg>