<svg width="24" height="24" viewBox="0 0 24 24" xmlns="http://www.w3.org/2000/svg"><title>icon/social/twitter-grey-hover</title><path d="M24 5.25a10.05 10.05 0 0 1-2.828.754 4.836 4.836 0 0 0 2.165-2.653 10.02 10.02 0 0 1-3.127 1.164A4.98 4.98 0 0 0 16.616 3c-2.72 0-4.924 2.148-4.924 4.796 0 .376.044.743.128 1.094-4.093-.2-7.72-2.11-10.15-5.012a4.68 4.68 0 0 0-.666 2.411c0 1.664.87 3.133 2.19 3.993a5.004 5.004 0 0 1-2.23-.6v.06c0 2.324 1.697 4.263 3.95 4.703a5.053 5.053 0 0 1-2.224.083c.627 1.905 2.445 3.292 4.6 3.33a10.047 10.047 0 0 1-6.115 2.054c-.398 0-.79-.023-1.175-.067A14.207 14.207 0 0 0 7.548 22c9.057 0 14.01-7.309 14.01-13.647 0-.208-.005-.415-.015-.62A9.868 9.868 0 0 0 24 5.248" fill="#FFF" fill-rule="nonzero"/></svg>