<svg xmlns="http://www.w3.org/2000/svg" width="74" height="74" viewBox="0 0 74 74"><path fill="#ed1c24" d="M37 69.889C18.865 69.889 4.111 55.135 4.111 37 4.111 18.865 18.865 4.111 37 4.111c18.135 0 32.889 14.754 32.889 32.889 0 18.135-14.754 32.889-32.889 32.889zM37 0C16.598 0 0 16.598 0 37s16.598 37 37 37 37-16.598 37-37S57.402 0 37 0z"/><path fill="#ed1c24" d="M11.51 48.397l8.634-6.86 7.04 2.013-.835 7.28-9.627 5.351a28.022 28.022 0 0 1-5.212-7.784zm50.97-22.794l-8.634 6.86-7.04-2.013.835-7.28 9.627-5.351a28.022 28.022 0 0 1 5.213 7.784zm-6.183 7.559l7.003-5.56a27.757 27.757 0 0 1 1.596 8.017zm-4.174 12.544L48.565 39.3l5.739-4.557 10.607 3.03a27.77 27.77 0 0 1-1.825 9.192zm1.237 2.225l8.88 1.02a28.015 28.015 0 0 1-4.544 6.786zm-11.822 5.92l2.012-7.047 7.275.836 5.348 9.633a27.988 27.988 0 0 1-7.781 5.217zm-.7 2.447l5.56 7.002a27.723 27.723 0 0 1-8.016 1.595zm-9.837-11.661c.392.308.808.589 1.245.835l1.15 1.445-4.81 2.667.627-5.458zm-4.54-8.104l.898 1.616c.06.508.162 1.003.298 1.485l-.212 1.843-5.301-1.515zm-5.82-10.464l-8.88-1.02a28.015 28.015 0 0 1 4.543-6.786zm11.811-5.92l-2.012 7.047-7.275-.836-5.348-9.633a27.988 27.988 0 0 1 7.781-5.217zm.71-2.447l-5.56-7.002a27.723 27.723 0 0 1 8.016-1.595zm9.837 11.651a9.773 9.773 0 0 0-1.245-.835l-1.15-1.445 4.81-2.667-.627 5.458zm3.652 6.508a9.574 9.574 0 0 0-.298-1.485l.212-1.843 5.301 1.515-4.319 3.429zm-2.013 7.142c.308-.393.59-.808.836-1.247l1.448-1.152 2.673 4.822-5.469-.63zm-6.49 3.648a9.692 9.692 0 0 0 1.488-.298l1.841.212-1.515 5.302-3.429-4.319zm-8.786-15.644c-.308.393-.59.808-.836 1.247l-1.448 1.152-2.673-4.822 5.469.63zm6.5-3.648c-.51.06-1.005.162-1.488.298l-1.841-.212 1.515-5.302 3.429 4.319zm-6.517 9.646c0-4.224 3.436-7.66 7.66-7.66s7.66 3.436 7.66 7.66-3.436 7.66-7.66 7.66-7.66-3.436-7.66-7.66zM48.95 11.761a28.015 28.015 0 0 1 6.786 4.544L47.93 20.64zm-3.236 10.116l-6.41 3.558-4.56-5.739 3.033-10.607c3.232.088 6.327.725 9.198 1.825zM17.703 40.838l-7.003 5.56a27.757 27.757 0 0 1-1.596-8.017zM9.09 36.233a27.813 27.813 0 0 1 1.825-9.199l10.963 1.26 3.558 6.412-5.739 4.56zm15.96 26.006a28.015 28.015 0 0 1-6.786-4.544l7.806-4.336zm3.246-10.116l6.41-3.558 4.56 5.739-3.033 10.607a27.787 27.787 0 0 1-9.198-1.825zM37 7C20.458 7 7 20.458 7 37s13.458 30 30 30 30-13.458 30-30S53.542 7 37 7z"/><path fill="#ed1c24" d="M37.495 34.037a3.462 3.462 0 0 1 3.458 3.458 3.462 3.462 0 0 1-3.458 3.458 3.462 3.462 0 0 1-3.458-3.458 3.462 3.462 0 0 1 3.458-3.458zM37.5 43c3.033 0 5.5-2.467 5.5-5.5S40.533 32 37.5 32a5.506 5.506 0 0 0-5.5 5.5c0 3.033 2.467 5.5 5.5 5.5z"/></svg>