<?xml version="1.0" encoding="utf-8"?>
<!-- Generator: Adobe Illustrator 24.0.1, SVG Export Plug-In . SVG Version: 6.00 Build 0)  -->
<svg version="1.1" id="Capa_1" xmlns="http://www.w3.org/2000/svg" xmlns:xlink="http://www.w3.org/1999/xlink" x="0px" y="0px"
	 viewBox="0 0 32 32" style="enable-background:new 0 0 32 32;" xml:space="preserve">
<style type="text/css">
	.st0{fill:#212121;}
</style>
<g>
	<g>
		<path class="st0" d="M5.9,22.2c0.3-0.2,1-0.5,1-1.6c0-0.8-0.5-2.1-2.5-2.1H0.5v8h3.4c1.6,0,2.1-0.3,2.5-0.7c0.4-0.4,0.7-1,0.7-1.6
			C7.1,23.4,6.8,22.6,5.9,22.2z M2.1,19.9H4c0.8,0,1.2,0.2,1.2,0.9c0,0.6-0.5,0.9-1.2,0.9H2v-1.8H2.1z M4.1,25.1h-2V23h2.1
			c0.6,0,1.2,0.3,1.2,1C5.4,24.8,4.9,25.1,4.1,25.1z"/>
	</g>
</g>
<g>
	<g>
		<polygon class="st0" points="0.5,27.8 0.5,28.5 1.7,28.5 1.7,31.9 2.6,31.9 2.6,28.5 3.8,28.5 3.8,27.8 		"/>
	</g>
</g>
<g>
	<g>
		<polygon class="st0" points="28.1,21.8 31.3,18.5 29.2,18.5 26.1,21.8 26.1,18.5 24.4,18.5 24.4,26.5 26.1,26.5 26.1,23.8 
			26.9,23 29.4,26.5 31.5,26.5 		"/>
	</g>
</g>
<g>
	<g>
		<path class="st0" d="M12.4,18.5h-1.9l-2.9,8h1.8l0.6-1.6h3l0.5,1.6h1.8L12.4,18.5z M10.3,23.5l1-3.2l0,0l1,3.2H10.3z"/>
	</g>
</g>
<g>
	<g>
		<path class="st0" d="M19.8,2.8c-0.5-0.6-1.1-1.1-1.7-1.6c-0.3-0.2-0.7-0.5-1-0.7c-0.4-0.2-0.8-0.4-1.2-0.5c0,0.5,0.1,0.9,0.2,1.3
			c0.1,0.4,0.2,0.8,0.4,1.1c-0.4,0.1-0.8,0.3-1.3,0.4c-0.3,0.1-0.7,0.3-1,0.5c-0.4,0.2-0.7,0.4-1.1,0.6c-0.4,0.2-0.7,0.5-1.1,0.8
			c-0.3,0.3-0.7,0.6-1,0.9s-0.6,0.7-0.8,1.1C10.1,6.9,10,7.1,9.9,7.3C9.8,7.5,9.7,7.6,9.6,7.8C9.4,8.2,9.3,8.6,9.2,8.9
			C9.1,9.3,9,9.6,9,10c0,0.3-0.1,0.6-0.1,0.9c0,0.3,0,0.5,0,0.7c0,0.4,0,0.6,0,0.6s0-0.2,0.1-0.6c0-0.2,0.1-0.4,0.1-0.6
			c0-0.2,0.2-0.5,0.3-0.8s0.2-0.6,0.4-0.9C10,9,10.1,8.7,10.4,8.4c0.1-0.1,0.2-0.3,0.3-0.4s0.3-0.3,0.4-0.4c0.3-0.3,0.6-0.5,0.9-0.7
			c0.3-0.2,0.6-0.4,1-0.6c0.4-0.1,0.7-0.3,1-0.4s0.7-0.2,1-0.3c0.3-0.1,0.6-0.1,0.9-0.2c0.2,0,0.3,0,0.5-0.1c0,0,0,0.1-0.1,0.1
			c-0.2,0.4-0.3,0.9-0.4,1.4c0,0.2-0.1,0.5-0.1,0.7c0,0.3,0,0.5,0,0.8C16,8.1,16.3,8,16.5,7.9s0.4-0.3,0.6-0.4
			c0.4-0.3,0.8-0.6,1.1-0.9c0.7-0.6,1.2-1.4,1.7-2.1L20,4.4C20.2,3.9,20.2,3.3,19.8,2.8z"/>
	</g>
</g>
<g>
	<g>
		<path class="st0" d="M7.6,31c0-0.8-0.2-0.9-0.5-1c0.4-0.1,0.6-0.5,0.6-1c0-0.4-0.2-1.2-1.3-1.2H4.3v4.1h0.8v-1.6H6
			c0.6,0,0.7,0.2,0.7,0.8c0,0.4,0,0.6,0.1,0.8h0.9v-0.1C7.6,31.7,7.6,31.6,7.6,31z M6.2,29.6h-1v-1.1h1.1c0.5,0,0.6,0.3,0.6,0.5
			C6.8,29.4,6.6,29.6,6.2,29.6z"/>
	</g>
</g>
<g>
	<g>
		<polygon class="st0" points="23.3,28.5 23.3,27.8 20.4,27.8 20.4,31.9 21.3,31.9 21.3,30.2 23.1,30.2 23.1,29.4 21.3,29.4 
			21.3,28.5 		"/>
	</g>
</g>
<g>
	<g>
		<polygon class="st0" points="24.8,31.2 24.8,30.1 26.8,30.1 26.8,29.4 24.8,29.4 24.8,28.5 26.9,28.5 26.9,27.8 23.9,27.8 
			23.9,31.9 27,31.9 27,31.2 		"/>
	</g>
</g>
<g>
	<g>
		<path class="st0" d="M18.7,29.6l-1-0.2c-0.2,0-0.4-0.1-0.4-0.4c0-0.4,0.4-0.5,0.7-0.5c0.8,0,0.8,0.4,0.8,0.6h0.8
			c0-0.5-0.3-1.3-1.6-1.3c-1.3,0-1.6,0.8-1.6,1.3c0,0.9,0.6,1.1,1.3,1.2l0.4,0.1c0.4,0.1,0.7,0.2,0.7,0.5c0,0.4-0.5,0.5-0.9,0.5
			c-0.8,0-0.9-0.4-0.9-0.7h-0.8c0,0.5,0.3,1.4,1.8,1.4c0.4,0,1.6-0.1,1.6-1.3C19.8,29.9,19.3,29.7,18.7,29.6z"/>
	</g>
</g>
<g>
	<g>
		<path class="st0" d="M31,31c0-0.8-0.2-0.9-0.5-1c0.4-0.1,0.6-0.5,0.6-1c0-0.4-0.2-1.2-1.3-1.2h-2.1v4.1h0.8v-1.6h0.9
			c0.6,0,0.7,0.2,0.7,0.8c0,0.4,0,0.6,0.1,0.8h0.9v-0.1C31,31.7,31,31.6,31,31z M29.6,29.6h-1v-1.1h1.1c0.5,0,0.6,0.3,0.6,0.5
			C30.2,29.4,30,29.6,29.6,29.6z"/>
	</g>
</g>
<g>
	<g>
		<polygon class="st0" points="21.1,18.5 21.1,24.1 21.1,24.1 17.9,18.5 16.2,18.5 16.2,26.5 17.7,26.5 17.7,20.8 17.8,20.8 
			21,26.5 22.7,26.5 22.7,18.5 		"/>
	</g>
</g>
<g>
	<g>
		<path class="st0" d="M10.5,27.8h-1L8,31.9h0.9L9.2,31h1.5l0.3,0.8h0.9L10.5,27.8z M9.4,30.3l0.5-1.6l0,0l0.5,1.6H9.4z"/>
	</g>
</g>
<g>
	<g>
		<polygon class="st0" points="15,27.8 15,30.6 15,30.6 13.3,27.8 12.4,27.8 12.4,31.9 13.2,31.9 13.2,29 13.2,29 14.9,31.9 
			15.8,31.9 15.8,27.8 		"/>
	</g>
</g>
<g>
	<g>
		<path class="st0" d="M22,5.7c0-0.4,0-0.6,0-0.6s0,0.2-0.1,0.6c0,0.2-0.1,0.4-0.1,0.6s-0.1,0.5-0.2,0.8S21.4,7.7,21.2,8
			c-0.2,0.3-0.3,0.6-0.5,0.9c-0.1,0.1-0.2,0.3-0.3,0.4c-0.1,0.1-0.3,0.3-0.4,0.4c-0.2,0.3-0.5,0.5-0.8,0.7s-0.6,0.4-0.9,0.6
			c-0.3,0.2-0.7,0.3-1,0.4c-0.3,0.1-0.6,0.2-1,0.3c-0.3,0.1-0.6,0.1-0.9,0.2c-0.2,0-0.3,0.1-0.5,0.1v-0.1c0.1-0.4,0.3-0.9,0.3-1.4
			c0-0.2,0.1-0.5,0.1-0.7c0-0.3,0-0.5,0-0.8c-0.3,0.1-0.5,0.2-0.7,0.4c-0.2,0.1-0.4,0.3-0.6,0.4c-0.4,0.3-0.7,0.6-1.1,0.9
			c-0.6,0.7-1.2,1.4-1.6,2.2L11.2,13c-0.3,0.5-0.2,1.1,0.2,1.6c0.5,0.6,1.1,1.1,1.8,1.6c0.3,0.2,0.7,0.4,1.1,0.6
			c0.4,0.2,0.8,0.4,1.2,0.5c0-0.5-0.1-0.9-0.2-1.3c-0.1-0.4-0.2-0.8-0.4-1.1c0.4-0.1,0.8-0.3,1.3-0.5c0.3-0.1,0.6-0.3,1-0.5
			c0.3-0.2,0.7-0.4,1-0.6c0.4-0.2,0.7-0.5,1-0.8s0.7-0.6,0.9-1c0.3-0.3,0.6-0.7,0.8-1.1c0.1-0.2,0.2-0.4,0.3-0.6
			c0.1-0.2,0.2-0.4,0.2-0.6c0.2-0.4,0.3-0.8,0.4-1.1c0.1-0.4,0.1-0.7,0.2-1c0-0.2,0-0.5,0-0.8C22,6.1,22,5.8,22,5.7z"/>
	</g>
</g>
</svg>
