<?xml version="1.0" standalone="no"?>
<!DOCTYPE svg PUBLIC "-//W3C//DTD SVG 1.1//EN" "http://www.w3.org/Graphics/SVG/1.1/DTD/svg11.dtd" >
<svg xmlns="http://www.w3.org/2000/svg">
<metadata></metadata>
<defs>
<font id="univers_lt_std75_black" horiz-adv-x="1366" >
<font-face units-per-em="2048" ascent="1483" descent="-565" />
<missing-glyph horiz-adv-x="681" />
<glyph unicode="&#xfb01;" horiz-adv-x="1478" d="M41 782v246h197q-5 134 12.5 220.5t66 145.5t133 84t216.5 25q88 0 208 -24v-244q-77 22 -108 22q-38 0 -65.5 -13t-43 -34t-23.5 -52.5t-10 -61.5t-1 -68h239v-246h-239v-782h-390v782h-192zM942 1204v275h393v-275h-393zM944 0v1028h389v-1028h-389z" />
<glyph unicode="&#xfb02;" horiz-adv-x="1478" d="M41 782v246h197q-5 134 12.5 220.5t66 145.5t133 84t216.5 25q88 0 208 -24v-244q-77 22 -108 22q-38 0 -65.5 -13t-43 -34t-23.5 -52.5t-10 -61.5t-1 -68h239v-246h-239v-782h-390v782h-192zM944 0v1479h389v-1479h-389z" />
<glyph horiz-adv-x="2048" />
<glyph horiz-adv-x="2048" />
<glyph unicode="&#xd;" horiz-adv-x="2048" />
<glyph unicode=" "  horiz-adv-x="681" />
<glyph unicode="&#x09;" horiz-adv-x="681" />
<glyph unicode="&#xa0;" horiz-adv-x="681" />
<glyph unicode="!" horiz-adv-x="909" d="M227 1479h443l-72 -1039h-295zM272 0v305h361v-305h-361z" />
<glyph unicode="&#x22;" horiz-adv-x="1024" d="M164 1419h321l-59 -545h-203zM569 1419h320l-60 -545h-200z" />
<glyph unicode="#" d="M74 340v244h211l45 235h-166v244h211l65 356h285l-66 -356h183l65 356h285l-66 -356h166v-244h-211l-43 -235h164v-244h-209l-63 -340h-285l62 340h-183l-61 -340h-287l64 340h-166zM569 584h183l45 235h-183z" />
<glyph unicode="$" d="M86 424h369q1 -30 5 -52.5t17.5 -54.5t45.5 -56t81 -36v314l-129 34q-41 11 -65 18t-67.5 24t-70.5 34t-61.5 47t-54 64t-33.5 83t-14 107q0 76 27.5 145t84 129t155.5 97t228 41v184h121v-184q119 -5 206.5 -30t140 -62t84 -91.5t42.5 -110t12 -126.5h-372q1 41 -8 72.5 t-21.5 49.5t-30 30t-29.5 16t-24 6v-293q186 -41 268 -68.5t148 -82.5q58 -49 88.5 -120.5t30.5 -150.5q0 -30 -4.5 -61t-19.5 -74.5t-39.5 -81.5t-69.5 -78t-105 -69q-107 -52 -297 -64v-182h-121v182q-49 2 -94 7.5t-98.5 20t-98 35.5t-87.5 56t-73 80t-48.5 109.5 t-18.5 142.5zM487 987q0 -46 32.5 -82.5t84.5 -48.5v262q-117 -31 -117 -131zM725 221q75 11 113.5 52.5t38.5 97.5q0 35 -14 61t-36.5 40t-37.5 20t-31 10l-33 10v-291z" />
<glyph unicode="%" horiz-adv-x="2048" d="M137 1098q0 22 0.5 37.5t3.5 49.5t9 59.5t18.5 61.5t29.5 62.5t44.5 54.5t61.5 46.5t82.5 30t105.5 11.5q171 0 262 -100q45 -52 67.5 -119.5t22.5 -187.5q0 -112 -18 -181t-58 -122q-44 -59 -117 -94t-162 -35q-72 0 -140.5 25.5t-115.5 76.5q-96 103 -96 324zM395 1071 q0 -72 8.5 -118.5t24 -66t29 -25t32.5 -5.5q53 0 74 51.5t21 184.5q0 79 -6.5 129.5t-20 74.5t-28 31.5t-37.5 7.5q-18 0 -30 -4t-26 -19.5t-22 -43t-13.5 -77.5t-5.5 -120zM553 -25l776 1561h219l-768 -1561h-227zM1264 426q0 23 0.5 38.5t3.5 50t9 60t18.5 61.5t29.5 62.5 t44 55t61.5 46.5t82.5 30t105 12q35 0 72.5 -5.5t94 -30.5t93.5 -67q46 -51 69 -119t23 -188q0 -109 -18.5 -179t-57.5 -124q-44 -59 -116.5 -94t-161.5 -35q-71 0 -140 26t-116 76q-96 106 -96 324zM1522 401q0 -59 6 -101t14.5 -64t22 -34.5t24 -15t25.5 -2.5 q53 0 74.5 52t21.5 186q0 79 -6.5 129t-20 73.5t-28 31.5t-37.5 8t-37.5 -7.5t-29 -32.5t-22 -80.5t-7.5 -142.5z" />
<glyph unicode="&#x26;" horiz-adv-x="1820" d="M90 406q0 52 13.5 98.5t32.5 80.5t52 66.5t59 52t67.5 42t63.5 32t60 25.5q-31 27 -48 42.5t-51.5 54t-53.5 72t-35.5 83t-16.5 100.5q0 74 29.5 135t81 102.5t122 69.5t151.5 41t171 13q38 0 75 -2t93 -11t104 -23.5t99 -42.5t86.5 -65t58.5 -94t23 -127q0 -43 -9.5 -83 t-22.5 -70.5t-38 -62.5t-44.5 -52.5t-54 -47.5t-53.5 -40.5t-56 -38.5l211 -209q36 45 59 88t32 81.5t11.5 55.5t3.5 43h354q-6 -147 -53 -261t-166 -237l299 -317h-497l-89 96q-50 -28 -82 -43t-95 -38t-144.5 -33.5t-181.5 -10.5q-62 0 -125 7t-142.5 24.5t-150 57.5 t-115.5 98q-88 113 -88 248zM520 395q0 -66 60.5 -119t175.5 -53q148 0 223 90l-274 271q-103 -47 -144 -92.5t-41 -96.5zM637 1169q0 -17 3.5 -29.5t16 -35t44.5 -55t83 -74.5q18 9 40.5 25t51.5 41.5t48.5 59.5t19.5 68q0 56 -44 88.5t-109 32.5q-66 0 -110 -34t-44 -87z " />
<glyph unicode="'" horiz-adv-x="681" d="M180 1419h322l-60 -545h-202z" />
<glyph unicode="(" horiz-adv-x="681" d="M96 639q0 115 21 236.5t64.5 252t74 208.5t84.5 206h266q-111 -378 -145.5 -546.5t-34.5 -346.5q0 -188 36.5 -382.5t145.5 -516.5h-270q-50 110 -80.5 184.5t-74 200t-65.5 252.5t-22 252z" />
<glyph unicode=")" horiz-adv-x="681" d="M74 1542h270q39 -84 63.5 -140.5t62 -158t60 -185.5t39.5 -193t17 -210q0 -115 -21 -236.5t-65 -253t-73.5 -207.5t-84.5 -208h-266q111 377 145.5 546.5t34.5 348.5q0 188 -36.5 382t-145.5 515z" />
<glyph unicode="*" horiz-adv-x="1138" d="M162 958v261l284 -62l-192 215l219 131l90 -280l86 282l223 -139l-190 -209l281 62v-265l-275 64l195 -225l-234 -125l-88 276l-90 -278l-219 129l190 223z" />
<glyph unicode="+" horiz-adv-x="1351" d="M125 408v286h405v408h293v-408h404v-286h-404v-408h-293v408h-405z" />
<glyph unicode="," horiz-adv-x="681" d="M47 -244l135 549h385l-241 -549h-279z" />
<glyph unicode="-" horiz-adv-x="681" d="M45 418v244h582v-244h-582z" />
<glyph unicode="." horiz-adv-x="681" d="M147 0v305h361v-305h-361z" />
<glyph unicode="/" horiz-adv-x="569" d="M-63 -33l450 1522h256l-448 -1522h-258z" />
<glyph unicode="0" d="M61 717q0 60 6.5 122t23 141t52.5 157.5t88 140.5q150 182 437 182q308 0 452 -184q168 -202 168 -557q0 -126 -20 -234.5t-65.5 -204.5t-115.5 -163.5t-175 -106.5t-238 -39q-131 0 -244.5 42t-189.5 130q-55 63 -93 142.5t-55.5 160.5t-24 144.5t-6.5 126.5zM463 711 q0 -95 5.5 -165.5t19.5 -130t37.5 -96.5t60 -57t86.5 -20q48 0 91 22.5t66 61.5q27 50 42.5 143.5t17.5 142.5t2 90q0 216 -35 342q-5 20 -11 35.5t-20 37.5t-32 36.5t-48 25.5t-67 11q-39 0 -67 -8t-58 -37t-48 -79.5t-30 -140t-12 -214.5z" />
<glyph unicode="1" d="M221 879v315q129 40 214.5 86.5t195.5 140.5h332v-1421h-396v1055q-73 -60 -177 -109.5t-169 -66.5z" />
<glyph unicode="2" d="M72 0v295q300 222 464 356.5t234 235.5q51 81 51 162q0 45 -16 75.5t-42 44t-48.5 18.5t-46.5 5q-37 0 -65.5 -9t-46 -26t-28.5 -32.5t-17 -39t-7.5 -33t-3.5 -26.5h-400q0 149 103 274q43 51 108 86t137 50.5t128 21.5t112 6q330 0 465 -174q76 -98 76 -229 q0 -86 -36.5 -170t-81.5 -146t-151 -153t-175 -142.5t-224 -163.5q-3 -2 -4 -3h676v-283h-1161z" />
<glyph unicode="3" d="M51 410h398q7 -172 206 -172q62 0 107 16.5t69 45t35 59.5t11 67q0 37 -13 67t-31.5 48.5t-48 32t-53.5 20t-58.5 10t-51.5 4t-43 0.5q-59 0 -113 -4v254q137 -5 215 6q49 7 85.5 27.5t53 41.5t26 48.5t10.5 39.5t1 23q0 73 -52.5 116.5t-139.5 43.5q-30 0 -58 -6.5 t-57 -23t-47.5 -51t-20.5 -83.5h-395q4 108 51 191t128 133.5t185 76t228 25.5q269 0 418 -104.5t149 -271.5q0 -130 -92.5 -226.5t-237.5 -111.5v-11q25 -3 44.5 -6t59 -13t70 -24.5t67.5 -41t61 -60.5t40.5 -86t16.5 -115q0 -193 -150 -301q-46 -33 -90 -55.5t-144.5 -44 t-230.5 -21.5q-178 0 -298 39t-201 125q-35 36 -57.5 74.5t-32.5 77.5t-13.5 62.5t-5.5 58.5z" />
<glyph unicode="4" d="M35 283v333l600 811h455v-884h229v-260h-229v-283h-369v283h-686zM299 543h428v583z" />
<glyph unicode="5" d="M100 406h392q3 -79 51 -120.5t125 -41.5q47 0 82.5 16t51 33t29.5 43q31 61 31 149q0 61 -16 108.5t-59 80.5t-109 33q-69 0 -111.5 -36.5t-50.5 -88.5l-393 4l29 833h1024v-278h-668l-25 -348q12 19 20.5 31t26.5 32t43 37.5t58 32.5q82 43 190 43q64 0 125 -15.5 t119 -51t101 -88.5t69.5 -133.5t26.5 -180.5q0 -56 -9.5 -115t-47 -141.5t-99.5 -139.5q-144 -135 -418 -135q-53 0 -109 6t-127 21.5t-137.5 50t-111.5 84.5q-34 37 -56 76t-31 78.5t-12 63.5t-4 57z" />
<glyph unicode="6" d="M76 713q0 117 19 220.5t65 202t116.5 169t181 113t251.5 42.5q65 0 125.5 -8t132 -34t124 -67t89.5 -113.5t41 -168.5h-375q-8 84 -70 125q-41 25 -92 25q-139 0 -203 -162q-5 -13 -9.5 -27.5t-7.5 -27t-5.5 -29.5t-4 -28t-2.5 -30.5t-1.5 -28.5t-1 -29.5t-0.5 -26.5v-27 v-23q17 24 28.5 39t44 44.5t68 47.5t95 32.5t128.5 14.5q214 0 342.5 -126.5t128.5 -337.5q0 -114 -36.5 -205.5t-95 -149.5t-136.5 -97t-156.5 -55t-159.5 -16q-336 0 -489 230q-135 201 -135 512zM479 469q0 -65 19 -112t52 -72.5t69.5 -37t78.5 -11.5q106 0 166 65 t60 174q0 22 -2.5 45t-15 60.5t-34 65t-64.5 48.5t-101 21q-107 0 -167.5 -67t-60.5 -179z" />
<glyph unicode="7" d="M94 1126v289h1129v-287l-535 -1128h-457l588 1126h-725z" />
<glyph unicode="8" d="M63 385q0 138 93.5 235t281.5 128v6q-140 14 -229.5 97t-89.5 226q0 96 41 166t100 111q31 21 60.5 36t79 32.5t121.5 26.5t161 9q348 0 485 -182q64 -82 64 -193q0 -49 -15.5 -97t-48.5 -96t-96 -85t-149 -53v-11q172 -19 266 -110.5t94 -235.5q0 -92 -34 -167 t-103.5 -133.5t-185 -91t-267.5 -32.5q-138 0 -248 23.5t-180 63t-116.5 93.5t-65.5 112t-19 122zM438 426q0 -25 5 -49t21 -52t41 -49t68.5 -35t100.5 -14q67 0 116 18.5t74 49t36 62.5t11 67q0 87 -60.5 145t-180.5 58q-62 0 -109 -18.5t-72.5 -49t-38 -64t-12.5 -69.5z M481 1049q0 -77 48 -127t147 -50q51 0 89 15.5t57 35.5t30 47.5t13.5 44.5t2.5 32q0 28 -9 56t-29.5 56t-60.5 45t-95 17q-82 0 -137.5 -44.5t-55.5 -127.5z" />
<glyph unicode="9" d="M63 969q0 218 162.5 355.5t429.5 137.5q91 0 167 -15t130.5 -43t95.5 -58.5t71 -71t47 -70.5t32 -67q78 -185 78 -430q0 -342 -154 -537q-92 -116 -216 -159.5t-277 -43.5q-312 0 -467 160q-36 38 -56.5 88t-24.5 78t-7 72h377q2 -62 53 -102t135 -40q64 0 109 22 t71 56.5t41.5 94t20.5 117.5t6 144q-60 -69 -136.5 -107t-195.5 -38q-133 0 -216 33t-146 96q-130 133 -130 328zM432 981q0 -42 11.5 -80t35.5 -71.5t68 -53.5t102 -20q111 0 168 60.5t57 160.5q0 39 -10.5 75.5t-34 71.5t-69 56.5t-107.5 21.5q-109 0 -165 -61.5 t-56 -159.5z" />
<glyph unicode=":" horiz-adv-x="681" d="M162 0v305h360v-305h-360zM162 721v305h360v-305h-360z" />
<glyph unicode=";" horiz-adv-x="681" d="M47 -244l135 549h385l-241 -549h-279zM162 721v305h356v-305h-356z" />
<glyph unicode="&#x3c;" horiz-adv-x="1351" d="M125 401v299l1102 428v-307l-760 -270l760 -268v-312z" />
<glyph unicode="=" horiz-adv-x="1351" d="M125 164v289h1102v-289h-1102zM125 649v289h1102v-289h-1102z" />
<glyph unicode="&#x3e;" horiz-adv-x="1351" d="M127 -29v312l758 268l-758 270v307l1100 -428v-299z" />
<glyph unicode="?" horiz-adv-x="1138" d="M152 1219v266q175 31 327 31q67 0 128.5 -6.5t130.5 -21.5t124.5 -44.5t101.5 -71.5t71.5 -106.5t25.5 -145.5q0 -28 -1 -42.5t-6 -42.5t-15.5 -48.5t-31.5 -52t-52 -61t-77.5 -68.5t-107.5 -82q-45 -32 -71 -58t-37 -54.5t-13 -47t-2 -57.5v-111h-321v197q-2 42 9.5 67 t65.5 80l158 164q32 33 47 51.5t28 48.5t13 64q0 83 -67.5 134.5t-202.5 51.5q-112 0 -225 -34zM303 0v305h361v-305h-361z" />
<glyph unicode="@" horiz-adv-x="1515" d="M6 727q0 164 65 311t176.5 253.5t267.5 168.5t331 62q196 0 357 -74.5t258.5 -218.5t97.5 -332q0 -140 -56 -263.5t-159.5 -199.5t-229.5 -76q-20 0 -40.5 3.5t-46 15t-45.5 28.5t-35 47.5t-17 69.5q-36 -65 -86 -106t-96 -55.5t-95 -14.5q-126 0 -207 87t-81 239 q0 125 55 240t153.5 188.5t214.5 73.5q72 0 132.5 -33t87.5 -94l24 92h223l-120 -416q-33 -129 -33 -139q0 -31 15 -50t30 -23.5t31 -4.5q35 0 75.5 29.5t76.5 80t59.5 128t23.5 163.5q0 119 -47 214t-127 153.5t-180 89.5t-211 31q-154 0 -285 -53.5t-220 -145t-139 -214.5 t-50 -261q0 -127 45 -240t128.5 -200t213 -138t286.5 -51q297 0 557 203l76 -100q-167 -120 -318 -175t-325 -55q-150 0 -280.5 41.5t-226.5 114t-165.5 168.5t-104 208t-34.5 230zM629 647q0 -73 28.5 -106t69.5 -33q72 0 121 96q23 44 57.5 153t34.5 163q0 45 -28 68.5 t-62 23.5q-63 0 -116 -66.5t-79 -149t-26 -149.5z" />
<glyph unicode="A" horiz-adv-x="1705" d="M16 0l584 1479h500l583 -1479h-462l-103 297h-592l-100 -297h-410zM623 569h401l-190 621h-7z" />
<glyph unicode="B" horiz-adv-x="1478" d="M125 0v1479h592q75 0 114 -1t105.5 -7t109.5 -18t93.5 -36t89.5 -59q112 -102 112 -254q0 -54 -14.5 -100.5t-34.5 -77.5t-52.5 -58.5t-57.5 -42.5t-62 -28.5t-52.5 -18t-41.5 -10.5v-4q29 -5 49.5 -9.5t60.5 -17.5t69.5 -29t65 -44.5t58 -64t38 -88t15.5 -114.5 q0 -228 -204 -336q-54 -28 -130.5 -42.5t-127.5 -16.5t-142 -2h-653zM522 883h193q41 0 60.5 0.5t42.5 4.5t40 13q36 21 57 58.5t21 84.5q0 86 -57 132q-21 16 -47 24t-41.5 9t-45.5 1h-223v-327zM524 270h228q211 0 211 172q0 179 -224 179h-215v-351z" />
<glyph unicode="C" horiz-adv-x="1593" d="M90 729q0 352 186 563q107 121 246 169t316 48q367 0 538 -180q34 -36 58.5 -77.5t36 -71.5t18.5 -69t8 -54t2 -43h-422q-13 106 -78 155.5t-161 49.5q-72 0 -128.5 -26t-93 -71t-60 -109.5t-33 -135.5t-9.5 -156q0 -30 1 -54.5t7.5 -75.5t17.5 -91t35 -87.5t56.5 -79.5 t85 -53.5t117.5 -21.5q45 0 81.5 9.5t61 23t43.5 35t29 38.5t17.5 42t9.5 37l5 30h426q0 -95 -28 -173t-70.5 -129t-104 -89.5t-120 -59t-127.5 -33t-117 -15.5t-98 -3q-64 0 -127 7t-143 26t-156.5 61t-134.5 103q-191 203 -191 561z" />
<glyph unicode="D" horiz-adv-x="1705" d="M150 0v1479h624q381 0 563 -123q279 -191 279 -613q0 -127 -21.5 -230t-68 -191.5t-125.5 -155t-189 -109.5q-152 -57 -434 -57h-628zM569 285h176q106 1 185.5 25.5t139.5 77.5t91 143.5t31 216.5q0 92 -20 165.5t-48.5 119.5t-74.5 79.5t-83 49t-90 24t-79 9.5t-66 1 l-162 2v-913z" />
<glyph unicode="E" d="M141 0v1475h1110v-283h-704v-307h663v-283h-663v-315h721v-287h-1127z" />
<glyph unicode="F" horiz-adv-x="1251" d="M145 0v1475h1047v-285h-639v-344h594v-285h-594v-561h-408z" />
<glyph unicode="G" horiz-adv-x="1705" d="M80 731q0 155 52.5 315.5t168.5 272.5q209 197 612 197q374 0 541 -173q37 -40 61 -83t34 -88.5t12.5 -71t3.5 -64.5h-416q-16 106 -87 151.5t-169 45.5q-82 0 -147.5 -28t-109 -74.5t-72.5 -110.5t-41.5 -134t-12.5 -147q0 -126 33 -222t93 -154t138.5 -86.5 t173.5 -28.5q98 0 228 24v287h-314v281h699v-791q-346 -82 -654 -82q-348 0 -553 154q-136 102 -205 263.5t-69 346.5z" />
<glyph unicode="H" horiz-adv-x="1593" d="M133 0v1479h414v-578h493v578h416v-1479h-416v598h-495v-598h-412z" />
<glyph unicode="I" horiz-adv-x="681" d="M123 0v1479h422v-1479h-422z" />
<glyph unicode="J" horiz-adv-x="1251" d="M10 473h408q0 -24 0.5 -37.5t4 -43t12 -48t23 -39t39.5 -31t58 -10.5q43 0 73 16.5t44.5 37.5t22.5 57t9 56t1 54v994h415v-979q0 -239 -100 -357q-154 -176 -465 -176q-336 0 -477 201q-31 44 -47.5 108.5t-18.5 102.5t-2 94z" />
<glyph unicode="K" horiz-adv-x="1593" d="M156 0v1479h415v-650l473 650h486l-510 -652l551 -827h-508l-492 786v-786h-415z" />
<glyph unicode="L" horiz-adv-x="1251" d="M137 0v1479h416v-1188h664v-291h-1080z" />
<glyph unicode="M" horiz-adv-x="2048" d="M129 0v1479h645l246 -1002l233 1002l643 2l2 -1481h-387l19 1241l-350 -1241h-369l-338 1251l10 -1251h-354z" />
<glyph unicode="N" horiz-adv-x="1705" d="M137 0v1479h565l500 -1102l-4 1102h358v-1479h-552l-510 1149l4 -1149h-361z" />
<glyph unicode="O" horiz-adv-x="1705" d="M82 733q0 51 6.5 109t24.5 145t62.5 174.5t109.5 153.5t150 110.5t170.5 63t143.5 25t113 6.5q123 0 227 -25t180 -67.5t135.5 -103.5t98 -129t63.5 -147.5t35.5 -155.5t10.5 -157q0 -170 -47 -305.5t-122.5 -221t-178 -142t-206.5 -79t-216 -22.5q-121 0 -230 26.5 t-207 86t-169 147t-112.5 217.5t-41.5 291zM504 735q0 -75 9 -139.5t33 -127t61.5 -106t98.5 -70t140 -26.5q84 0 147.5 30.5t99.5 77t58.5 112.5t29.5 126t7 129q0 237 -94 375q-77 107 -246 107q-79 0 -139.5 -27t-98.5 -71.5t-62.5 -108.5t-34 -132.5t-9.5 -148.5z" />
<glyph unicode="P" horiz-adv-x="1478" d="M150 0v1479h679q60 0 95 -1.5t92 -8t106 -23t92 -43.5q98 -60 153.5 -161t55.5 -241q0 -74 -18.5 -139t-43 -106.5t-58.5 -77t-57 -52t-46 -28.5q-115 -63 -373 -63l-266 -3v-532h-411zM561 815h182q30 0 47 0.5t48.5 4.5t51 11t44 21.5t38.5 35t24 53t10 73.5 q0 52 -17 89t-41 56t-63.5 29.5t-69.5 13t-74 2.5h-180v-389z" />
<glyph unicode="Q" horiz-adv-x="1705" d="M86 705q0 284 115 485q46 81 113 142.5t134 95.5t146 55.5t140.5 28t125.5 6.5q199 0 327 -51.5t224 -147.5q201 -203 201 -524q0 -76 -12.5 -145.5t-30 -119t-46.5 -96.5t-51.5 -75t-56 -58t-49 -41.5t-41.5 -28.5q125 36 291 36q31 0 63 -1v-264h-162q-301 0 -427 -6 q-15 -1 -88 -4.5t-138 -6.5t-84 -3q-155 0 -285 53.5t-219.5 148.5t-139.5 229t-50 292zM504 735q0 -75 9 -139.5t33 -127t61.5 -106t98.5 -70t140 -26.5q83 0 145.5 29.5t99 75t59.5 110.5t30.5 126.5t7.5 131.5q0 239 -94 377q-74 107 -246 107q-79 0 -139.5 -27 t-98.5 -71.5t-62.5 -108.5t-34 -132.5t-9.5 -148.5z" />
<glyph unicode="R" horiz-adv-x="1478" d="M133 0v1479h684q206 0 298.5 -20.5t156.5 -86.5q102 -102 102 -287q0 -111 -36.5 -173.5t-98.5 -100.5q-89 -56 -225 -76v-8q60 -2 106.5 -12t78.5 -21.5t56.5 -41.5t37.5 -48.5t25.5 -67.5t16.5 -74t14 -91q1 -4 1 -6q38 -274 69 -365h-444q-22 78 -49 334 q-3 34 -5 50.5t-6 43t-7.5 38t-10 30.5t-14 27t-18.5 20t-25 16.5t-32.5 10t-40.5 7t-50 1.5h-172v-578h-412zM545 844h153q135 0 170 12q41 13 67.5 46.5t34 63t7.5 58.5q0 38 -10 67.5t-24 48.5t-39.5 32t-45 19.5t-53.5 10t-53 4t-54 0.5h-153v-362z" />
<glyph unicode="S" horiz-adv-x="1478" d="M86 471h412q1 -20 1.5 -32t6 -38.5t14.5 -45t28 -41.5t44 -37.5t65.5 -24.5t90.5 -10q16 0 29 1t42.5 5t52 15t46 28.5t36.5 48t13 70.5q0 55 -28 89.5t-99 53.5l-363 94q-25 7 -40 11t-47 15.5t-54 22.5t-53.5 30t-53 39.5t-45.5 51t-39 64t-24.5 78t-9.5 94.5 q0 93 36 174t108.5 147t195 104t282.5 38q119 0 215 -18.5t157.5 -46.5t107 -71.5t68.5 -82.5t36.5 -91t16 -85t3.5 -77h-415q0 205 -195 205q-88 0 -141.5 -44t-53.5 -111q0 -38 14 -66.5t40.5 -45t46 -24.5t49.5 -16l276 -72q79 -21 122.5 -34.5t111.5 -47t104 -74 t64.5 -110.5t28.5 -160q0 -121 -49.5 -213.5t-139 -149.5t-206.5 -85.5t-259 -28.5q-380 0 -536 176q-31 34 -53.5 75t-33 72.5t-17 73.5t-7.5 59t-2 48z" />
<glyph unicode="T" d="M20 1186v293h1326v-293h-461v-1186h-414v1186h-451z" />
<glyph unicode="U" horiz-adv-x="1705" d="M145 637l2 842h414v-879q0 -153 47 -223q40 -60 107 -90.5t145 -30.5q295 0 295 358v865h399v-856q0 -316 -114 -451q-51 -63 -125 -107t-157.5 -65t-158 -30t-153.5 -9q-144 0 -258 26.5t-186.5 64t-124 101t-76.5 115t-38.5 131t-15.5 123t-2 115.5z" />
<glyph unicode="V" horiz-adv-x="1593" d="M18 1479h453l336 -1071l354 1071h408l-539 -1479h-489z" />
<glyph unicode="W" horiz-adv-x="2048" d="M16 1479h408l137 -1078l242 1078h502l219 -1069l137 1069h371l-254 -1479h-492l-256 1096l-272 -1096h-490z" />
<glyph unicode="X" horiz-adv-x="1705" d="M16 0l562 770l-521 709h529l288 -459l300 459h471l-527 -701l553 -778h-524l-324 526l-327 -526h-480z" />
<glyph unicode="Y" horiz-adv-x="1593" d="M12 1479h475l324 -621l334 621h422l-578 -957v-522h-414v541z" />
<glyph unicode="Z" d="M35 0v326l737 864h-696v285h1204v-316l-762 -872h778v-287h-1261z" />
<glyph unicode="[" horiz-adv-x="681" d="M121 -252v1798h569v-209h-280v-1376h280v-213h-569z" />
<glyph unicode="\" horiz-adv-x="569" d="M-63 1489h256l450 -1522h-258z" />
<glyph unicode="]" horiz-adv-x="681" d="M-29 -39h279v1376h-279v209h570v-1798h-570v213z" />
<glyph unicode="^" horiz-adv-x="1351" d="M172 586l373 893h262l373 -893h-308l-198 542l-195 -542h-307z" />
<glyph unicode="_" horiz-adv-x="1024" d="M0 -154h1024v-102h-1024v102z" />
<glyph unicode="`" horiz-adv-x="681" d="M-102 1487h426l219 -297h-264z" />
<glyph unicode="a" horiz-adv-x="1251" d="M66 299q0 104 47 178t139 117t220 60q90 12 201 12q46 0 95 -2v24q0 23 -1 41q-2 28 -10 57.5t-21.5 48t-38 30.5t-58.5 12q-61 0 -99.5 -37t-37.5 -119h-369q2 40 4 62t21 69t55 84q60 61 173 95t253 34q61 0 121 -6.5t143 -35t133 -77.5q90 -86 90 -270v-479 q0 -78 21 -197h-369q-12 56 -12 147q-22 -33 -44.5 -57t-61.5 -52t-98 -43t-134 -15q-181 0 -271.5 87.5t-90.5 231.5zM444 334q0 -60 37.5 -99.5t104.5 -39.5q25 0 49 6.5t54 30t48 61.5q30 62 30 158q0 16 -1 34q-41 0 -61.5 -1t-57 -3t-56 -6t-47 -11t-42.5 -18 t-30 -26.5t-21.5 -37t-6.5 -48.5z" />
<glyph unicode="b" d="M113 0q12 140 12 256v1223h387v-559q37 46 88 76.5t103.5 41.5t80.5 14t54 3q253 0 381 -215q65 -113 65 -320q0 -145 -32.5 -239t-100.5 -166q-127 -138 -324 -138q-210 0 -342 175l-12 -152h-360zM500 520q0 -19 1 -39t5.5 -52t12.5 -60t22.5 -58.5t34.5 -52 t50.5 -35.5t67.5 -14q193 0 193 313q0 309 -185 309q-45 0 -80.5 -17t-56.5 -47t-35 -62t-20 -71t-8 -64t-2 -50z" />
<glyph unicode="c" horiz-adv-x="1251" d="M86 520q0 118 32 212t86 155t128.5 101.5t155.5 57.5t171 17q279 0 416 -148q41 -43 64.5 -94.5t28.5 -81.5t8 -71h-381q0 78 -33.5 127t-104.5 49q-51 0 -86.5 -24.5t-54 -71t-26 -101t-7.5 -127.5q0 -97 12.5 -163t37 -101t53 -49t67.5 -14q37 0 64.5 15t41.5 35.5 t22 51.5t10 54t2 52h389q1 -194 -141 -310t-377 -116q-125 0 -229 33.5t-182.5 99.5t-122.5 171t-44 241z" />
<glyph unicode="d" d="M70 514q0 151 34 241t95 156q132 140 338 140q61 0 110 -11t87 -35t61 -44t55 -54v572h385v-1223q0 -113 10 -256h-364l-9 152q-19 -27 -31 -42.5t-43.5 -44.5t-65 -45.5t-88.5 -30.5t-120 -14q-102 0 -182.5 32.5t-130.5 84.5t-82.5 124t-45.5 145t-13 153zM469 512 q0 -29 2.5 -57.5t9 -66t20 -68.5t33.5 -58.5t52 -43t73 -15.5q99 0 147 87t48 228q0 138 -47 222.5t-143 84.5q-60 0 -102 -34t-60.5 -88.5t-25.5 -99.5t-7 -91z" />
<glyph unicode="e" horiz-adv-x="1251" d="M76 498q0 267 135.5 417t411.5 150q104 0 186.5 -20t140 -57.5t96 -82t66.5 -102.5q33 -64 45 -146t12 -221h-737q0 -250 197 -250q77 0 123 39t53 111h358q-11 -94 -58 -164.5t-121.5 -112t-164 -62t-192.5 -20.5q-269 0 -410 133t-141 388zM436 645h371q-2 27 -4.5 46 t-14 54t-29.5 57.5t-53 40t-83 17.5q-169 0 -187 -215z" />
<glyph unicode="f" horiz-adv-x="909" d="M41 774v250h205q-2 33 -2 65q0 28 2 55q3 58 11.5 109t35.5 93.5t69.5 73.5t114.5 48t170 17t227 -12v-248q-48 12 -106 12q-45 0 -76.5 -14t-46 -36.5t-22.5 -50.5t-7 -57t0 -55h248v-250h-248v-774h-376v774h-199z" />
<glyph unicode="g" d="M76 543q0 106 28.5 197.5t84 162t145 110.5t203.5 40q232 0 340 -174v155h362v-958q0 -251 -164 -367q-161 -115 -424 -115q-292 0 -428 121q-32 28 -52 60t-28.5 67t-10.5 53.5t-3 49.5h363q2 -61 44 -96t123 -35q55 0 95 16t61 39t32.5 59.5t14 65t2.5 69.5v136 q-36 -54 -85.5 -91t-99.5 -51.5t-82.5 -19t-64.5 -4.5q-68 0 -131 16.5t-123 55.5t-104 96t-71 145t-27 197zM473 547q0 -38 3.5 -72.5t16 -75.5t33 -70t57 -49t85.5 -20q38 0 68.5 12.5t50 31.5t33.5 47.5t21 53.5t11 56.5t5 49.5t1 40q0 19 -0.5 33t-4 46.5t-10 56.5 t-20.5 54t-33 50t-49.5 33.5t-68.5 13.5q-95 0 -147 -79.5t-52 -211.5z" />
<glyph unicode="h" d="M133 0v1479h389v-564q24 24 43.5 40t60.5 42t97 40t121 14q173 0 286 -105q37 -33 59 -70.5t31 -87.5t11 -86t2 -104v-598h-383v553q0 26 -0.5 41.5t-3.5 45.5t-8.5 49.5t-17.5 44t-28.5 39t-42.5 24.5t-59 10q-127 0 -162 -143q-10 -47 -10 -199v-465h-385z" />
<glyph unicode="i" horiz-adv-x="681" d="M137 1200v275h393v-275h-393zM141 0v1028h385v-1028h-385z" />
<glyph unicode="j" horiz-adv-x="681" d="M10 -145q15 -2 29 -2q21 0 38 5q27 8 40.5 20t20.5 40t8 46.5t1 55.5v1008h390v-1098q0 -183 -86 -257t-304 -74q-76 0 -137 4v252zM145 1200v275h394v-275h-394z" />
<glyph unicode="k" d="M152 0v1479h376v-906l353 455h426l-351 -434l402 -594h-463l-367 571v-571h-376z" />
<glyph unicode="l" horiz-adv-x="681" d="M141 0v1479h385v-1479h-385z" />
<glyph unicode="m" horiz-adv-x="2048" d="M117 1028h381l4 -170q108 195 348 195q25 0 50.5 -2.5t69 -13.5t79 -30t71 -56.5t54.5 -88.5q34 57 81 97t97.5 60t94.5 28t89 8q218 0 324 -160q26 -41 38.5 -103t14.5 -105.5t2 -123.5v-563h-385v582q0 35 -1 53.5t-4.5 50.5t-13.5 49.5t-26.5 37t-44 28t-64.5 8.5 q-99 0 -143 -86q-21 -44 -21 -145v-578h-385v586q0 28 -0.5 42t-3 41.5t-8 43.5t-16.5 36.5t-27 32t-41 19.5t-57 8q-164 0 -164 -223v-586h-385v795q0 12 -4 114.5t-4 118.5z" />
<glyph unicode="n" d="M121 1028h385l4 -158q21 36 44.5 62.5t63 56t99 46t135.5 16.5q61 0 112 -10.5t87.5 -26.5t65.5 -43t47.5 -51.5t31.5 -61t19 -61.5t9.5 -63.5t4 -58t0.5 -52.5v-623h-385v590q0 22 -0.5 35t-3.5 39t-8.5 42.5t-17 37.5t-28 33t-42 21t-58.5 9q-41 0 -72.5 -13t-49 -36 t-29 -45t-15.5 -51t-5 -42.5t-1 -29.5v-590h-383v809z" />
<glyph unicode="o" d="M78 518q0 120 37.5 218.5t110 172t188.5 114t266 40.5q127 0 234 -32.5t188 -96.5t126.5 -167.5t45.5 -236.5q0 -257 -150 -407q-152 -148 -424 -148q-317 0 -475 152q-147 140 -147 391zM477 516q0 -157 49 -244q47 -82 150 -82q48 0 85 20.5t58.5 52.5t35 77t18 87 t4.5 89q0 328 -197 328q-203 0 -203 -328z" />
<glyph unicode="p" d="M115 1028h377l4 -145q17 24 29 38.5t43.5 43t64.5 45.5t86.5 31t114.5 14q57 0 112.5 -13t117 -49t107 -92t75.5 -150.5t30 -215.5q0 -144 -38.5 -254t-104.5 -174t-145.5 -95.5t-170.5 -31.5q-64 0 -116.5 13.5t-91 40t-57.5 44t-44 45.5v-512h-385v1249q-2 50 -3.5 81 t-2.5 52.5t-2 34.5zM500 518q0 -27 2 -52t7 -64t18 -70t32.5 -60.5t52 -46t74.5 -16.5q195 0 195 330q0 46 -6.5 89t-24 93.5t-57 81.5t-97.5 31q-40 0 -72.5 -15t-52.5 -36.5t-34.5 -55t-21.5 -60t-10.5 -62t-4 -51t-0.5 -36.5z" />
<glyph unicode="q" d="M66 504q0 111 27.5 208t81 173.5t140.5 121t197 44.5q61 0 114.5 -14t86.5 -30.5t66 -45t45.5 -43t31.5 -39.5l4 149h373q-3 -59 -8 -113q-2 -12 -2 -55v-1249h-383v520q-24 -28 -42.5 -46t-58.5 -46.5t-96.5 -43.5t-126.5 -15q-68 0 -131.5 18t-122 58.5t-102 100 t-69 149t-25.5 198.5zM465 512q0 -36 3 -71t14.5 -80.5t30 -79t52.5 -57t80 -23.5q52 0 90.5 25t58.5 59.5t32 82t15 81.5t3 69q0 24 -1 45.5t-5.5 54.5t-12 60t-22 55.5t-34.5 48t-50 32.5t-68 13q-186 0 -186 -315z" />
<glyph unicode="r" horiz-adv-x="909" d="M127 1028h375l6 -213q18 47 43 84.5t52 60t57 39.5t58 23q30 6 58 11q22 4 40 4q6 -1 11 -1q23 -2 43 0v-329q-67 6 -82 6q-268 0 -268 -277v-436h-383v809z" />
<glyph unicode="s" horiz-adv-x="1138" d="M59 334h381q0 -55 17 -92q27 -64 112 -64q60 0 88.5 32t28.5 73q0 49 -34 71t-111 43l-209 60q-250 63 -250 278q0 73 34.5 135.5t88.5 98.5q126 88 364 88q450 0 469 -346h-364q0 67 -15 100q-27 55 -106 55q-48 0 -81.5 -23t-33.5 -67q0 -41 26.5 -62.5t78.5 -35.5 l274 -76q36 -10 63.5 -20.5t63 -33t59 -51t40 -74.5t16.5 -104q0 -56 -14.5 -103.5t-37 -81t-57 -60.5t-67 -43.5t-76 -29t-74 -18t-70.5 -8.5t-57 -3.5t-41 -0.5q-39 0 -72.5 1.5t-75.5 6t-77 12.5t-73 22t-67.5 33t-57 46.5t-45.5 61.5q-19 34 -29 80q-10 42 -9 91v9z" />
<glyph unicode="t" horiz-adv-x="909" d="M27 778v246h200v160l371 147v-307h244v-246h-248v-356q2 -99 14 -128q21 -48 100 -55q16 -1 35 -1q50 0 97 6v-242q-115 -18 -250 -18q-114 0 -187 18t-113 58.5t-54.5 92.5t-14.5 132v493h-194z" />
<glyph unicode="u" d="M131 449v579h383v-600q0 -26 1 -43.5t9 -50.5t23 -53.5t46 -37t75 -16.5q39 0 68 10.5t46 31t27.5 39t14 47t4.5 42t1 35.5v596h385v-850q6 -125 7 -178h-379l-8 160q-30 -48 -65.5 -82t-67 -52.5t-69 -28.5t-63.5 -12.5t-59 -2.5q-74 0 -133 16t-98 41.5t-67.5 65 t-43.5 77.5t-24 89t-11 89.5t-2 88.5z" />
<glyph unicode="v" horiz-adv-x="1251" d="M18 1028h414l205 -721l219 721h363l-390 -1028h-419z" />
<glyph unicode="w" horiz-adv-x="1933" d="M14 1028h394l167 -729l183 729h430l180 -725l182 725h344l-323 -1028h-430l-189 717l-202 -717h-422z" />
<glyph unicode="x" horiz-adv-x="1251" d="M25 0l346 537l-305 491h448l131 -315l137 315h394l-316 -491l348 -537h-454l-162 381l-170 -381h-397z" />
<glyph unicode="y" horiz-adv-x="1251" d="M16 1028h416l205 -715l223 715h359l-560 -1417h-358l145 356z" />
<glyph unicode="z" horiz-adv-x="1138" d="M82 0v260l493 518h-471v248h910v-254l-500 -528h524v-244h-956z" />
<glyph unicode="{" horiz-adv-x="681" d="M-37 551v192q63 9 108.5 32.5t69 50t37 63t16.5 62t3 57.5v47q0 60 2 97.5t12.5 92.5t30 90t58 76t93 66t137.5 44t189 25v-184q-47 -3 -83.5 -15.5t-60 -28t-39.5 -42.5t-24 -47.5t-12.5 -55.5t-5 -54.5t-0.5 -55.5v-45q0 -98 -20.5 -159t-70.5 -114 q-27 -30 -60.5 -50.5t-71 -29.5t-59.5 -12.5t-54 -5.5q57 -7 87.5 -12.5t79 -27.5t83.5 -58q39 -38 59.5 -92.5t23.5 -90.5t3 -90v-45q0 -27 0.5 -42t2.5 -43t5.5 -45t11.5 -41.5t19 -40t28 -33t39 -28t52 -18t67 -8.5v-184q-150 8 -248.5 39t-167.5 92q-37 33 -58 68.5 t-34.5 108t-13.5 184.5v47q0 28 -0.5 44.5t-5.5 44t-13.5 45t-25.5 40.5t-41.5 38t-62 29t-85.5 23z" />
<glyph unicode="|" horiz-adv-x="569" d="M139 -512v2048h291v-2048h-291z" />
<glyph unicode="}" horiz-adv-x="681" d="M-37 -68q47 3 83.5 15.5t60 28t39.5 42.5t24 47.5t12.5 55.5t5 54.5t0.5 55.5v45q0 98 20.5 159t70.5 114q27 30 60.5 50.5t71 29.5t59.5 12.5t54 5.5q-57 7 -87.5 12.5t-79 27t-83.5 56.5q-39 39 -59.5 94t-23.5 91t-3 90v45q0 27 -0.5 42t-2.5 43t-5.5 45t-11.5 41.5 t-19 40t-28 33t-39 28t-52 18t-67 8.5v184q150 -8 248.5 -39t167.5 -92q56 -50 81 -124t25 -236v-47q0 -28 0.5 -44.5t5.5 -44t13.5 -45.5t25.5 -40.5t41.5 -38t62 -29.5t85.5 -23v-192q-63 -9 -108.5 -32.5t-69 -50t-37 -62.5t-16.5 -61.5t-3 -57.5v-47q0 -60 -2 -97.5 t-12.5 -93t-30 -90.5t-58 -76t-93 -66t-137.5 -44t-189 -25v184z" />
<glyph unicode="~" horiz-adv-x="1351" d="M106 352q10 182 101.5 295t216.5 113q59 0 299 -74q161 -49 215 -49q28 0 49.5 9t32.5 19.5t20 30.5t11 29.5l6 28.5h188q-4 -59 -17 -115t-38.5 -111t-60.5 -95.5t-87.5 -65.5t-115.5 -25q-73 0 -367 94q-2 0 -23.5 6.5t-41.5 11.5t-45 10t-41 5q-49 0 -78 -32t-37 -85 h-187z" />
<glyph unicode="&#xa1;" horiz-adv-x="909" d="M233 -375l74 1039h295l76 -1039h-445zM266 797v307h369v-307h-369z" />
<glyph unicode="&#xa2;" d="M129 535q0 110 28 196t76 144t118.5 97.5t149 59.5t173.5 27l78 260h284l-82 -299q117 -47 196 -143t79 -213h-400q4 54 -27 91.5t-110 37.5q-164 0 -164 -279q0 -278 164 -278q44 0 73 13t43.5 39t20 49t9.5 60h399q-4 -103 -51 -185.5t-123 -139.5q-146 -109 -361 -103 l-90 -288h-284l92 346q-157 73 -224 199t-67 309z" />
<glyph unicode="&#xa3;" d="M25 690v234h196q0 64 1.5 102t12.5 108.5t31 115.5t61.5 101.5t100 89.5t150.5 56t208 23q85 0 156.5 -12t123 -30t92.5 -48t67 -57t45 -66t28.5 -67t15 -67t6.5 -59t1 -51h-379q0 27 -1 43t-5 46.5t-14.5 49.5t-27.5 40t-47 31.5t-69 10.5q-43 0 -74.5 -14t-49.5 -39 t-30 -59t-15 -74t-5 -84t0 -90h297v-234h-297v-450h647v-240h-1181v240h151v450h-196z" />
<glyph unicode="&#xa4;" horiz-adv-x="1351" d="M141 352l138 137q-60 113 -60 226q0 110 60 227l-138 137l172 172l138 -137q113 60 225 60q52 0 101 -12t70 -21t56 -27l135 137l172 -172l-135 -137q60 -123 60 -227q0 -116 -60 -226l137 -137l-172 -172l-137 137q-111 -59 -225 -59q-116 0 -227 59l-138 -137zM473 717 q0 -85 59 -144t144 -59t144 59t59 144q0 84 -59.5 142.5t-143.5 58.5q-83 0 -143 -59t-60 -142z" />
<glyph unicode="&#xa5;" d="M18 1417h412l246 -559l260 559h412l-285 -528h192v-266h-305l-61 -111h366v-266h-385v-246h-389v246h-370v266h366l-61 111h-305v266h182z" />
<glyph unicode="&#xa6;" horiz-adv-x="569" d="M139 358h291v-716h-291v716zM139 666v716h291v-716h-291z" />
<glyph unicode="&#xa7;" d="M184 713q0 97 52.5 166.5t173.5 130.5q-177 69 -177 237q0 54 19.5 98t48 72t71.5 48.5t80.5 30.5t84.5 16t73.5 7t57.5 1q88 0 360 -33v-234q-133 45 -258 45q-66 0 -106.5 -17.5t-40.5 -53.5q0 -32 26.5 -51t85.5 -41l232 -80q211 -72 211 -279q0 -178 -193 -276 q30 -16 50.5 -29t44.5 -34t38.5 -43.5t24.5 -55.5t10 -72q0 -63 -23.5 -113.5t-57 -82t-84.5 -54t-92 -33.5t-94.5 -17t-77.5 -6.5t-54 -0.5q-250 0 -420 45v232q148 -50 289 -50q82 0 130.5 13.5t64.5 32.5t16 47q0 33 -31 55t-103 47l-198 70q-131 45 -182.5 108 t-51.5 154zM537 776q0 -38 17.5 -68.5t54 -55t69 -39.5t84.5 -35q74 88 74 161q0 28 -11 52t-25 40.5t-45 36t-53 30.5t-67 32q-56 -48 -77 -83.5t-21 -70.5z" />
<glyph unicode="&#xa8;" horiz-adv-x="681" d="M-104 1190v297h350v-297h-350zM434 1190v297h350v-297h-350z" />
<glyph unicode="&#xa9;" horiz-adv-x="1638" d="M70 743q0 214 106 393t285 281.5t387 102.5q209 0 387.5 -103t283.5 -282t105 -392q0 -158 -61.5 -302t-165 -248t-247.5 -166t-302 -62t-302 61.5t-248 165.5t-166 248.5t-62 302.5zM205 743q0 -174 86 -322t234 -234.5t323 -86.5t322.5 87t233 235t85.5 321 q0 174 -86 322t-233.5 234.5t-321.5 86.5t-321.5 -85.5t-234.5 -233.5t-87 -324zM449 733q0 214 100 338q59 75 134 102t167 27q199 0 289 -106q29 -33 44.5 -70t18.5 -59.5t4 -51.5v-8h-227q-7 63 -42 92t-87 29q-174 0 -174 -297q0 -278 178 -278q114 0 127 131h229 q0 -81 -28.5 -141t-79 -94t-112 -50t-136.5 -16q-205 0 -303 116q-102 121 -102 336z" />
<glyph unicode="&#xaa;" horiz-adv-x="751" d="M16 1061q1 71 58.5 126t138 81t164.5 26h80q0 72 -60 72q-39 0 -62.5 -16t-21.5 -31h-239q0 105 116 154q81 36 230 36q74 0 139.5 -18t113.5 -62.5t48 -109.5v-318q0 -23 14 -127h-272l-8 52h-4q-16 -24 -63 -47t-103 -23q-120 0 -195 52t-74 153zM283 1073 q0 -34 21 -54t58 -20q27 0 45.5 9.5t27.5 21.5t14 35t5.5 36.5t0.5 40.5v3v3v3q-67 0 -111 -12q-61 -9 -61 -66z" />
<glyph unicode="&#xab;" d="M117 522l254 398h317l-246 -402l246 -397h-315zM666 522l254 398h317l-244 -402l244 -397h-315z" />
<glyph unicode="&#xac;" horiz-adv-x="1351" d="M125 649v289h1102v-774h-299v485h-803z" />
<glyph unicode="&#xad;" horiz-adv-x="681" d="M45 418v244h582v-244h-582z" />
<glyph unicode="&#xae;" horiz-adv-x="1638" d="M43 741q0 215 105 394.5t283 282t386 102.5q156 0 299 -60.5t248.5 -164t168 -248.5t62.5 -306q0 -157 -61.5 -300t-165.5 -247t-248.5 -165.5t-302.5 -61.5t-301.5 61.5t-247 165.5t-164.5 247t-61 300zM178 741q0 -130 51 -248t137 -203.5t204 -136.5t247 -51 q132 0 251.5 51.5t205.5 137.5t137 204t51 246q0 176 -87 324.5t-235.5 234.5t-322.5 86q-128 0 -245.5 -50t-204 -135t-138 -205.5t-51.5 -254.5zM461 311v860h401q59 0 90.5 -1.5t83.5 -13t79 -34t49 -67t22 -109.5q0 -180 -209 -205v-4q46 -1 78.5 -11.5t50.5 -22.5 t30.5 -37t16.5 -41.5t10 -48.5q1 -7 2 -11q3 -23 7.5 -52.5t6.5 -43.5t5 -33.5t4.5 -28.5t3.5 -21.5t3.5 -18.5t3 -14t3.5 -14t3.5 -12.5t4.5 -15.5h-258q-17 74 -28 201q-3 26 -5 38.5t-6 30.5t-9 25.5t-13.5 17.5t-21 13.5t-29 6.5t-39.5 3h-99v-336h-241zM702 803h91 q31 0 47.5 0.5t41.5 6t37.5 16t22.5 31.5t10 52q0 30 -10.5 51.5t-24.5 32t-39 16t-41 6.5t-44 1h-91v-213z" />
<glyph unicode="&#xaf;" horiz-adv-x="681" d="M-55 1257v156h782v-156h-782z" />
<glyph unicode="&#xb0;" horiz-adv-x="819" d="M102 1141q-1 126 89.5 216.5t218.5 90.5q126 0 216.5 -90.5t90.5 -216.5q0 -127 -90.5 -217t-216.5 -90q-128 0 -218 90t-90 217zM266 1135q1 -64 40 -101t102 -37t104 37.5t41 100.5q0 62 -42.5 105.5t-104.5 43.5q-61 0 -101.5 -43.5t-38.5 -105.5z" />
<glyph unicode="&#xb1;" horiz-adv-x="1351" d="M125 -82v289h1102v-289h-1102zM125 580v286h405v318h293v-318h404v-286h-404v-301h-293v301h-405z" />
<glyph unicode="&#xb2;" horiz-adv-x="819" d="M47 580v159q30 31 115 95.5t159 121t136 126.5t65 122q3 37 -21 55.5t-77 18.5q-42 0 -70 -27t-28 -57h-260q2 56 24 100.5t57.5 72.5t85 47t102.5 26.5t114 7.5q67 0 126.5 -12t111 -37.5t82 -72.5t30.5 -109q0 -46 -31.5 -101.5t-78 -103.5t-104 -96.5t-104 -81 t-83.5 -57.5l-36 -25v-2h439v-170h-754z" />
<glyph unicode="&#xb3;" horiz-adv-x="819" d="M33 825h268q0 -38 33 -71q26 -23 90 -23q127 0 127 94q0 27 -7.5 46.5t-25.5 31.5t-33.5 19t-45 9.5t-44.5 3.5t-49 0t-43 -1v170q8 0 34.5 -0.5t37 0t33.5 1.5t33.5 4.5t28.5 8.5t26.5 13.5t18 20t13.5 28t4 37.5q0 28 -31 44.5t-73 16.5q-41 0 -71.5 -22.5t-30.5 -51.5 h-271q1 64 35 113t89.5 76.5t119.5 41t133 13.5q64 0 124 -9.5t120 -31.5t96.5 -67.5t36.5 -108.5q0 -79 -62.5 -134.5t-150.5 -68.5v-4q104 -11 167.5 -66.5t63.5 -150.5q0 -67 -37 -117t-98 -77t-126 -39.5t-132 -12.5q-174 0 -278.5 59t-122.5 205z" />
<glyph unicode="&#xb4;" horiz-adv-x="681" d="M141 1190l228 297h417l-374 -297h-271z" />
<glyph unicode="&#xb5;" d="M193 -436v1464h286v-506q0 -63 2.5 -103.5t12.5 -82.5t29 -65.5t51.5 -38.5t80.5 -15q38 0 67.5 9.5t49 24t33.5 39t21.5 47.5t11.5 56.5t5 58t1 60.5v516h284v-1028h-237v117q-17 -24 -24.5 -33.5t-30.5 -33t-43 -35t-53.5 -21.5t-71.5 -10q-44 0 -78.5 9t-59 27t-36 30 t-27.5 32v-518h-274z" />
<glyph unicode="&#xb6;" horiz-adv-x="1740" d="M246 958q0 73 16.5 142.5t56.5 139.5t100 122t155 84.5t214 32.5h699v-230h-103v-1614h-278v1614h-182v-1614h-279v865q-50 6 -82.5 12t-86.5 30t-97 64q-133 127 -133 352z" />
<glyph unicode="&#xb7;" horiz-adv-x="681" d="M147 418v305h361v-305h-361z" />
<glyph unicode="&#xb8;" horiz-adv-x="681" d="M68 -406l26 93q101 -45 191 -45q108 0 108 79q0 37 -31 56.5t-71 19.5q-37 0 -78 -18l-47 41l119 198h100l-78 -145q42 6 70 6q98 0 149.5 -44.5t51.5 -106.5q0 -31 -13 -59t-42.5 -55t-87 -43.5t-136.5 -16.5q-135 0 -231 40z" />
<glyph unicode="&#xb9;" horiz-adv-x="819" d="M143 1081v199q153 45 267 137h225v-837h-266v608q-121 -74 -226 -107z" />
<glyph unicode="&#xba;" horiz-adv-x="819" d="M23 1184q0 83 31 146.5t85 101.5t123 57.5t150 19.5q109 0 194 -33t139 -108t54 -184t-54 -185t-139.5 -109.5t-193.5 -33.5q-81 0 -150 20t-123 58.5t-85 102.5t-31 147zM289 1184q0 -78 28 -131.5t95 -53.5q120 0 120 185q0 182 -120 182q-46 0 -75 -29t-38.5 -67 t-9.5 -86z" />
<glyph unicode="&#xbb;" d="M117 121l243 401l-243 398h315l256 -402l-254 -397h-317zM666 121l243 401l-243 398h315l256 -402l-254 -397h-317z" />
<glyph unicode="&#xbc;" horiz-adv-x="2048" d="M195 1081v199q151 45 266 137h225v-837h-266v608q-122 -75 -225 -107zM483 0l748 1448h223l-747 -1448h-224zM1018 164v170l391 516h315v-516h129v-170h-129v-164h-266v164h-440zM1247 334h211v295h-6z" />
<glyph unicode="&#xbd;" horiz-adv-x="2048" d="M184 1081v199q153 45 267 137h225v-837h-266v608q-121 -74 -226 -107zM453 0l747 1448h223l-747 -1448h-223zM1110 0v160q30 31 115 95.5t159 121t136 126.5t65 122q3 37 -20.5 55t-77.5 18q-42 0 -70 -27t-28 -57h-261q2 56 24 100.5t57.5 72.5t85 47t102.5 26.5 t114 7.5q67 0 126.5 -12t111.5 -37.5t82.5 -72.5t30.5 -109q0 -46 -31.5 -101.5t-78 -103.5t-104 -96.5t-104 -81t-82.5 -57.5l-37 -25v-2h439v-170h-754z" />
<glyph unicode="&#xbe;" horiz-adv-x="2048" d="M57 825h269q0 -39 32 -71q26 -23 91 -23q126 0 126 94q0 27 -7.5 46.5t-25.5 31.5t-33 19t-44.5 9.5t-44.5 3.5t-49 0t-43 -1v170q8 0 34.5 -0.5t37 0t33.5 1.5t33.5 4.5t28.5 8.5t26.5 13.5t18 20t13.5 28t4 37.5q0 28 -31 44.5t-73 16.5q-41 0 -72 -22.5t-31 -51.5 h-270q1 64 35 113t89.5 76.5t119.5 41t133 13.5q64 0 124 -9.5t120 -31.5t96.5 -67.5t36.5 -108.5q0 -79 -62.5 -134.5t-150.5 -68.5v-4q104 -11 167.5 -66.5t63.5 -150.5q0 -67 -37 -117t-98 -77t-126 -39.5t-132 -12.5q-83 0 -148 12.5t-121 41t-90 81.5t-43 129zM608 0 l748 1448h223l-748 -1448h-223zM1155 164v170l391 516h316v-516h129v-170h-129v-164h-267v164h-440zM1364 334h231v315h-6z" />
<glyph unicode="&#xbf;" horiz-adv-x="1138" d="M78 -10q0 28 5 54.5t10.5 48t19.5 45.5t23.5 39.5t31 38t32.5 34t38.5 34t38 30.5t42.5 32t41 31q59 43 83.5 68t38.5 64.5t14 104.5v101h327q-2 -46 0.5 -99.5t2 -76.5t-9.5 -57t-33.5 -66t-71.5 -78q-1 -1 -20.5 -20t-27 -27.5t-28 -29.5t-31.5 -35t-28.5 -35.5 t-27 -39t-20.5 -38t-15.5 -39.5t-4.5 -37q0 -50 25 -86.5t66.5 -55t84.5 -26.5t90 -8q128 0 219 30v-266q-164 -31 -327 -31q-80 0 -153.5 9t-155.5 35.5t-141.5 68.5t-98.5 115t-39 168zM475 797v307h369v-307h-369z" />
<glyph unicode="&#xc0;" horiz-adv-x="1705" d="M16 0l584 1479h500l583 -1479h-462l-103 297h-592l-100 -297h-410zM410 1937h426l219 -297h-264zM623 569h401l-190 621h-7z" />
<glyph unicode="&#xc1;" horiz-adv-x="1705" d="M16 0l584 1479h500l583 -1479h-462l-103 297h-592l-100 -297h-410zM616 1640l228 297h418l-375 -297h-271zM623 569h401l-190 621h-7z" />
<glyph unicode="&#xc2;" horiz-adv-x="1705" d="M16 0l584 1479h500l583 -1479h-462l-103 297h-592l-100 -297h-410zM428 1640l244 297h346l246 -297h-267l-151 158l-152 -158h-266zM623 569h401l-190 621h-7z" />
<glyph unicode="&#xc3;" horiz-adv-x="1705" d="M16 0l584 1479h500l583 -1479h-462l-103 297h-592l-100 -297h-410zM373 1640q6 121 86 207q85 92 213 92q53 0 149 -28l158 -45q44 -13 63 -13q60 0 68 80h166q-11 -122 -92.5 -208.5t-194.5 -86.5q-33 0 -102 19l-168 49q-57 16 -88 16q-79 0 -99 -82h-159zM623 569h401 l-190 621h-7z" />
<glyph unicode="&#xc4;" horiz-adv-x="1705" d="M16 0l584 1479h500l583 -1479h-462l-103 297h-592l-100 -297h-410zM408 1640v297h350v-297h-350zM623 569h401l-190 621h-7zM946 1640v297h350v-297h-350z" />
<glyph unicode="&#xc5;" horiz-adv-x="1705" d="M16 0l584 1479h500l583 -1479h-462l-103 297h-592l-100 -297h-410zM623 569h401l-190 621h-7zM625 1788q0 96 66.5 163.5t162.5 67.5q95 0 162 -68t67 -163t-67 -162t-162 -67t-162 67.5t-67 161.5zM745 1788q0 -45 32 -77t77 -32q44 0 76.5 32.5t32.5 76.5 q0 46 -32.5 78t-76.5 32q-46 0 -77.5 -32t-31.5 -78z" />
<glyph unicode="&#xc6;" horiz-adv-x="2048" d="M14 0l650 1479h1286v-287h-652l33 -305h559v-287h-528l31 -313h557v-287h-922l-33 293h-463l-112 -293h-406zM637 580h332l-68 643h-10z" />
<glyph unicode="&#xc7;" horiz-adv-x="1593" d="M90 729q0 352 186 563q107 121 246 169t316 48q367 0 538 -180q34 -36 58.5 -77.5t36 -71.5t18.5 -69t8 -54t2 -43h-422q-13 106 -78 155.5t-161 49.5q-72 0 -128.5 -26t-93 -71t-60 -109.5t-33 -135.5t-9.5 -156q0 -30 1 -54.5t7.5 -75.5t17.5 -91t35 -87.5t56.5 -79.5 t85 -53.5t117.5 -21.5q45 0 81.5 9.5t61 23t43.5 35t29 38.5t17.5 42t9.5 37l5 30h426q0 -87 -22.5 -159t-59.5 -122.5t-90.5 -89.5t-109.5 -62.5t-122.5 -39t-125 -22t-121.5 -7.5l-53 -98q42 6 69 6q99 0 150 -44t51 -107q0 -31 -13 -59t-42 -55t-86 -43.5t-135 -16.5 q-138 0 -234 40l27 93q101 -45 190 -45q109 0 109 79q0 37 -31.5 56.5t-71.5 19.5q-36 0 -77 -18l-47 41l92 155q-221 17 -363 105q-91 57 -154 139.5t-93 175t-42 172t-12 162.5z" />
<glyph unicode="&#xc8;" d="M141 0v1475h1110v-283h-704v-307h663v-283h-663v-315h721v-287h-1127zM240 1937h426l219 -297h-264z" />
<glyph unicode="&#xc9;" d="M141 0v1475h1110v-283h-704v-307h663v-283h-663v-315h721v-287h-1127zM483 1640l228 297h417l-374 -297h-271z" />
<glyph unicode="&#xca;" d="M141 0v1475h1110v-283h-704v-307h663v-283h-663v-315h721v-287h-1127zM258 1640l244 297h346l246 -297h-267l-151 158l-152 -158h-266z" />
<glyph unicode="&#xcb;" d="M141 0v1475h1110v-283h-704v-307h663v-283h-663v-315h721v-287h-1127zM238 1640v297h350v-297h-350zM776 1640v297h350v-297h-350z" />
<glyph unicode="&#xcc;" horiz-adv-x="681" d="M-102 1937h426l219 -297h-264zM123 0v1479h422v-1479h-422z" />
<glyph unicode="&#xcd;" horiz-adv-x="681" d="M117 1640l227 297h418l-375 -297h-270zM123 0v1479h422v-1479h-422z" />
<glyph unicode="&#xce;" horiz-adv-x="681" d="M-84 1640l244 297h346l246 -297h-267l-151 158l-152 -158h-266zM123 0v1479h422v-1479h-422z" />
<glyph unicode="&#xcf;" horiz-adv-x="681" d="M-104 1640v297h350v-297h-350zM123 0v1479h422v-1479h-422zM434 1640v297h350v-297h-350z" />
<glyph unicode="&#xd0;" horiz-adv-x="1705" d="M10 717v176h127v586h625q156 0 283 -24t232.5 -79t177 -140t110.5 -210.5t39 -286.5t-39 -286.5t-110.5 -210t-177 -139.5t-232.5 -79t-283 -24h-625v717h-127zM547 287h192q85 0 162 28.5t138.5 82.5t98 142.5t36.5 198.5t-36.5 198.5t-98 143t-138.5 83t-162 28.5h-192 v-299h321v-176h-321v-430z" />
<glyph unicode="&#xd1;" horiz-adv-x="1705" d="M137 0v1479h565l500 -1102l-4 1102h358v-1479h-552l-510 1149l4 -1149h-361zM397 1640q6 121 86 207q85 92 213 92q54 0 150 -28l158 -45q44 -13 63 -13q60 0 68 80h165q-11 -123 -92 -209t-194 -86q-34 0 -103 19l-168 49q-57 16 -88 16q-77 0 -98 -82h-160z" />
<glyph unicode="&#xd2;" horiz-adv-x="1705" d="M82 733q0 51 6.5 109t24.5 145t62.5 174.5t109.5 153.5t150 110.5t170.5 63t143.5 25t113 6.5q123 0 227 -25t180 -67.5t135.5 -103.5t98 -129t63.5 -147.5t35.5 -155.5t10.5 -157q0 -170 -47 -305.5t-122.5 -221t-178 -142t-206.5 -79t-216 -22.5q-121 0 -230 26.5 t-207 86t-169 147t-112.5 217.5t-41.5 291zM410 1937h426l219 -297h-264zM504 735q0 -75 9 -139.5t33 -127t61.5 -106t98.5 -70t140 -26.5q84 0 147.5 30.5t99.5 77t58.5 112.5t29.5 126t7 129q0 237 -94 375q-77 107 -246 107q-79 0 -139.5 -27t-98.5 -71.5t-62.5 -108.5 t-34 -132.5t-9.5 -148.5z" />
<glyph unicode="&#xd3;" horiz-adv-x="1705" d="M82 733q0 51 6.5 109t24.5 145t62.5 174.5t109.5 153.5t150 110.5t170.5 63t143.5 25t113 6.5q123 0 227 -25t180 -67.5t135.5 -103.5t98 -129t63.5 -147.5t35.5 -155.5t10.5 -157q0 -170 -47 -305.5t-122.5 -221t-178 -142t-206.5 -79t-216 -22.5q-121 0 -230 26.5 t-207 86t-169 147t-112.5 217.5t-41.5 291zM504 735q0 -75 9 -139.5t33 -127t61.5 -106t98.5 -70t140 -26.5q84 0 147.5 30.5t99.5 77t58.5 112.5t29.5 126t7 129q0 237 -94 375q-77 107 -246 107q-79 0 -139.5 -27t-98.5 -71.5t-62.5 -108.5t-34 -132.5t-9.5 -148.5z M653 1640l228 297h417l-374 -297h-271z" />
<glyph unicode="&#xd4;" horiz-adv-x="1705" d="M82 733q0 51 6.5 109t24.5 145t62.5 174.5t109.5 153.5t150 110.5t170.5 63t143.5 25t113 6.5q123 0 227 -25t180 -67.5t135.5 -103.5t98 -129t63.5 -147.5t35.5 -155.5t10.5 -157q0 -170 -47 -305.5t-122.5 -221t-178 -142t-206.5 -79t-216 -22.5q-121 0 -230 26.5 t-207 86t-169 147t-112.5 217.5t-41.5 291zM428 1640l244 297h346l246 -297h-267l-151 158l-152 -158h-266zM504 735q0 -75 9 -139.5t33 -127t61.5 -106t98.5 -70t140 -26.5q84 0 147.5 30.5t99.5 77t58.5 112.5t29.5 126t7 129q0 237 -94 375q-77 107 -246 107 q-79 0 -139.5 -27t-98.5 -71.5t-62.5 -108.5t-34 -132.5t-9.5 -148.5z" />
<glyph unicode="&#xd5;" horiz-adv-x="1705" d="M82 733q0 51 6.5 109t24.5 145t62.5 174.5t109.5 153.5t150 110.5t170.5 63t143.5 25t113 6.5q123 0 227 -25t180 -67.5t135.5 -103.5t98 -129t63.5 -147.5t35.5 -155.5t10.5 -157q0 -170 -47 -305.5t-122.5 -221t-178 -142t-206.5 -79t-216 -22.5q-121 0 -230 26.5 t-207 86t-169 147t-112.5 217.5t-41.5 291zM373 1640q6 121 86 207q85 92 213 92q53 0 149 -28l158 -45q44 -13 63 -13q60 0 68 80h166q-11 -122 -92.5 -208.5t-194.5 -86.5q-33 0 -102 19l-168 49q-57 16 -88 16q-79 0 -99 -82h-159zM504 735q0 -75 9 -139.5t33 -127 t61.5 -106t98.5 -70t140 -26.5q84 0 147.5 30.5t99.5 77t58.5 112.5t29.5 126t7 129q0 237 -94 375q-77 107 -246 107q-79 0 -139.5 -27t-98.5 -71.5t-62.5 -108.5t-34 -132.5t-9.5 -148.5z" />
<glyph unicode="&#xd6;" horiz-adv-x="1705" d="M82 733q0 51 6.5 109t24.5 145t62.5 174.5t109.5 153.5t150 110.5t170.5 63t143.5 25t113 6.5q123 0 227 -25t180 -67.5t135.5 -103.5t98 -129t63.5 -147.5t35.5 -155.5t10.5 -157q0 -170 -47 -305.5t-122.5 -221t-178 -142t-206.5 -79t-216 -22.5q-121 0 -230 26.5 t-207 86t-169 147t-112.5 217.5t-41.5 291zM408 1640v297h350v-297h-350zM504 735q0 -75 9 -139.5t33 -127t61.5 -106t98.5 -70t140 -26.5q84 0 147.5 30.5t99.5 77t58.5 112.5t29.5 126t7 129q0 237 -94 375q-77 107 -246 107q-79 0 -139.5 -27t-98.5 -71.5t-62.5 -108.5 t-34 -132.5t-9.5 -148.5zM946 1640v297h350v-297h-350z" />
<glyph unicode="&#xd7;" horiz-adv-x="1351" d="M139 215l336 336l-336 336l201 200l336 -335l336 335l200 -200l-333 -336l333 -336l-200 -201l-336 334l-336 -334z" />
<glyph unicode="&#xd8;" horiz-adv-x="1705" d="M55 27l191 192q-158 196 -158 520q0 366 200 568t566 202q324 0 514 -155l197 200l133 -145l-199 -201q121 -189 121 -469q0 -366 -200 -568t-566 -202q-281 0 -463 119l-201 -203zM518 733q0 -118 25 -215l565 574q-80 131 -254 131q-336 0 -336 -490zM637 338 q79 -82 217 -82q80 0 141.5 29t97.5 75t58.5 111t30.5 127.5t8 134.5q0 93 -12 152z" />
<glyph unicode="&#xd9;" horiz-adv-x="1705" d="M145 637l2 842h414v-879q0 -153 47 -223q40 -60 107 -90.5t145 -30.5q295 0 295 358v865h399v-856q0 -316 -114 -451q-51 -63 -125 -107t-157.5 -65t-158 -30t-153.5 -9q-144 0 -258 26.5t-186.5 64t-124 101t-76.5 115t-38.5 131t-15.5 123t-2 115.5zM410 1937h426 l219 -297h-264z" />
<glyph unicode="&#xda;" horiz-adv-x="1705" d="M145 637l2 842h414v-879q0 -153 47 -223q40 -60 107 -90.5t145 -30.5q295 0 295 358v865h399v-856q0 -316 -114 -451q-51 -63 -125 -107t-157.5 -65t-158 -30t-153.5 -9q-144 0 -258 26.5t-186.5 64t-124 101t-76.5 115t-38.5 131t-15.5 123t-2 115.5zM653 1640l228 297 h417l-374 -297h-271z" />
<glyph unicode="&#xdb;" horiz-adv-x="1705" d="M145 637l2 842h414v-879q0 -153 47 -223q40 -60 107 -90.5t145 -30.5q295 0 295 358v865h399v-856q0 -316 -114 -451q-51 -63 -125 -107t-157.5 -65t-158 -30t-153.5 -9q-144 0 -258 26.5t-186.5 64t-124 101t-76.5 115t-38.5 131t-15.5 123t-2 115.5zM428 1640l244 297 h346l246 -297h-267l-151 158l-152 -158h-266z" />
<glyph unicode="&#xdc;" horiz-adv-x="1705" d="M145 637l2 842h414v-879q0 -153 47 -223q40 -60 107 -90.5t145 -30.5q295 0 295 358v865h399v-856q0 -316 -114 -451q-51 -63 -125 -107t-157.5 -65t-158 -30t-153.5 -9q-144 0 -258 26.5t-186.5 64t-124 101t-76.5 115t-38.5 131t-15.5 123t-2 115.5zM408 1640v297h350 v-297h-350zM946 1640v297h350v-297h-350z" />
<glyph unicode="&#xdd;" horiz-adv-x="1593" d="M12 1479h475l324 -621l334 621h422l-578 -957v-522h-414v541zM598 1640l227 297h418l-375 -297h-270z" />
<glyph unicode="&#xde;" horiz-adv-x="1478" d="M150 0v1479h409v-209h270q141 0 247.5 -24.5t188 -78.5t123.5 -147.5t42 -224.5q0 -106 -28 -187t-79 -135.5t-126.5 -89t-165.5 -49.5t-202 -15h-270v-319h-409zM559 606h211q116 0 172.5 51t56.5 138q0 86 -56.5 137t-172.5 51h-211v-377z" />
<glyph unicode="&#xdf;" horiz-adv-x="1593" d="M133 0v1053q0 74 18 136.5t45.5 106.5t70.5 79.5t83 57.5t94 38t92 23.5t89 11.5t73 4.5t54 0.5q25 0 43.5 -0.5t61.5 -3.5t77 -8.5t81.5 -17.5t83.5 -28.5t74.5 -43t63.5 -59.5t41 -79.5t16 -101.5q0 -35 -8 -64.5t-17 -47t-29 -36.5t-30.5 -26.5t-35.5 -23.5 q-71 -43 -93 -65t-22 -62q0 -33 11 -52.5t53 -49t137 -80.5q45 -25 68 -38t57.5 -36.5t52 -45t36 -52t26 -67.5t7.5 -83q0 -158 -120 -262.5t-349 -104.5q-266 0 -376 119q-32 36 -49.5 80.5t-20 68t-4.5 62.5h340q0 -57 30 -90q33 -33 76 -33q31 0 53.5 13.5t33 30.5 t16.5 40t7 35t1 23q0 22 -3.5 39.5t-8 31t-19 28t-24.5 24t-38.5 26t-47 26.5t-62.5 33q-46 24 -68 35.5t-56 32t-49.5 33.5t-36.5 34t-30 40.5t-15.5 45t-6.5 54.5q0 59 32 109t113 98q29 17 41.5 25.5t28 25t21.5 36.5t6 48q0 67 -45 110t-138 43q-229 0 -229 -264v-1036 h-377z" />
<glyph unicode="&#xe0;" horiz-adv-x="1251" d="M66 299q0 104 47 178t139 117t219.5 60t296.5 10q1 37 -1 65t-10 57.5t-21.5 48t-38 30.5t-58.5 12q-61 0 -99.5 -37t-37.5 -119h-369q2 40 4 62t21 69t55 84q60 61 173 95t253 34q61 0 121 -6.5t143 -35t133 -77.5q90 -86 90 -270v-479q0 -78 21 -197h-369 q-12 56 -12 147q-22 -33 -44.5 -57t-61.5 -52t-98 -43t-134 -15q-181 0 -271.5 87.5t-90.5 231.5zM219 1487h426l219 -297h-264zM444 334q0 -60 37.5 -99.5t104.5 -39.5q25 0 49 6.5t54 30t48 61.5q35 73 29 192q-41 0 -61.5 -1t-57 -3t-56 -6t-47 -11t-42.5 -18t-30 -26.5 t-21.5 -37t-6.5 -48.5z" />
<glyph unicode="&#xe1;" horiz-adv-x="1251" d="M66 299q0 104 47 178t139 117t219.5 60t296.5 10q1 37 -1 65t-10 57.5t-21.5 48t-38 30.5t-58.5 12q-61 0 -99.5 -37t-37.5 -119h-369q2 40 4 62t21 69t55 84q60 61 173 95t253 34q61 0 121 -6.5t143 -35t133 -77.5q90 -86 90 -270v-479q0 -78 21 -197h-369 q-12 56 -12 147q-22 -33 -44.5 -57t-61.5 -52t-98 -43t-134 -15q-181 0 -271.5 87.5t-90.5 231.5zM377 1190l227 297h418l-375 -297h-270zM444 334q0 -60 37.5 -99.5t104.5 -39.5q25 0 49 6.5t54 30t48 61.5q35 73 29 192q-41 0 -61.5 -1t-57 -3t-56 -6t-47 -11t-42.5 -18 t-30 -26.5t-21.5 -37t-6.5 -48.5z" />
<glyph unicode="&#xe2;" horiz-adv-x="1251" d="M66 299q0 104 47 178t139 117t219.5 60t296.5 10q1 37 -1 65t-10 57.5t-21.5 48t-38 30.5t-58.5 12q-61 0 -99.5 -37t-37.5 -119h-369q2 40 4 62t21 69t55 84q60 61 173 95t253 34q61 0 121 -6.5t143 -35t133 -77.5q90 -86 90 -270v-479q0 -78 21 -197h-369 q-12 56 -12 147q-22 -33 -44.5 -57t-61.5 -52t-98 -43t-134 -15q-181 0 -271.5 87.5t-90.5 231.5zM201 1190l243 297h347l245 -297h-266l-152 158l-151 -158h-266zM444 334q0 -60 37.5 -99.5t104.5 -39.5q25 0 49 6.5t54 30t48 61.5q35 73 29 192q-41 0 -61.5 -1t-57 -3 t-56 -6t-47 -11t-42.5 -18t-30 -26.5t-21.5 -37t-6.5 -48.5z" />
<glyph unicode="&#xe3;" horiz-adv-x="1251" d="M66 299q0 104 47 178t139 117t219.5 60t296.5 10q1 37 -1 65t-10 57.5t-21.5 48t-38 30.5t-58.5 12q-61 0 -99.5 -37t-37.5 -119h-369q2 40 4 62t21 69t55 84q60 61 173 95t253 34q61 0 121 -6.5t143 -35t133 -77.5q90 -86 90 -270v-479q0 -78 21 -197h-369 q-12 56 -12 147q-22 -33 -44.5 -57t-61.5 -52t-98 -43t-134 -15q-181 0 -271.5 87.5t-90.5 231.5zM129 1190q6 121 86 207q85 92 213 92q50 0 150 -29l157 -45q41 -12 64 -12q59 0 67 80h166q-11 -122 -92.5 -208.5t-194.5 -86.5q-37 0 -102 18l-168 49q-61 17 -88 17 q-77 0 -98 -82h-160zM444 334q0 -60 37.5 -99.5t104.5 -39.5q25 0 49 6.5t54 30t48 61.5q35 73 29 192q-41 0 -61.5 -1t-57 -3t-56 -6t-47 -11t-42.5 -18t-30 -26.5t-21.5 -37t-6.5 -48.5z" />
<glyph unicode="&#xe4;" horiz-adv-x="1251" d="M66 299q0 104 47 178t139 117t219.5 60t296.5 10q1 37 -1 65t-10 57.5t-21.5 48t-38 30.5t-58.5 12q-61 0 -99.5 -37t-37.5 -119h-369q2 40 4 62t21 69t55 84q60 61 173 95t253 34q61 0 121 -6.5t143 -35t133 -77.5q90 -86 90 -270v-479q0 -78 21 -197h-369 q-12 56 -12 147q-22 -33 -44.5 -57t-61.5 -52t-98 -43t-134 -15q-181 0 -271.5 87.5t-90.5 231.5zM180 1190v297h350v-297h-350zM444 334q0 -60 37.5 -99.5t104.5 -39.5q25 0 49 6.5t54 30t48 61.5q35 73 29 192q-41 0 -61.5 -1t-57 -3t-56 -6t-47 -11t-42.5 -18t-30 -26.5 t-21.5 -37t-6.5 -48.5zM719 1190v297h350v-297h-350z" />
<glyph unicode="&#xe5;" horiz-adv-x="1251" d="M66 299q0 104 47 178t139 117t219.5 60t296.5 10q1 37 -1 65t-10 57.5t-21.5 48t-38 30.5t-58.5 12q-61 0 -99.5 -37t-37.5 -119h-369q2 40 4 62t21 69t55 84q60 61 173 95t253 34q61 0 121 -6.5t143 -35t133 -77.5q90 -86 90 -270v-479q0 -78 21 -197h-369 q-12 56 -12 147q-22 -33 -44.5 -57t-61.5 -52t-98 -43t-134 -15q-181 0 -271.5 87.5t-90.5 231.5zM397 1337q0 96 67 164t163 68q95 0 162 -68t67 -164q0 -95 -67 -162t-162 -67t-162.5 67.5t-67.5 161.5zM444 334q0 -60 37.5 -99.5t104.5 -39.5q25 0 49 6.5t54 30t48 61.5 q35 73 29 192q-41 0 -61.5 -1t-57 -3t-56 -6t-47 -11t-42.5 -18t-30 -26.5t-21.5 -37t-6.5 -48.5zM518 1337q0 -45 32 -76.5t77 -31.5q44 0 76 32t32 76q0 46 -32 78.5t-76 32.5q-46 0 -77.5 -32.5t-31.5 -78.5z" />
<glyph unicode="&#xe6;" horiz-adv-x="1933" d="M43 309q1 89 54 160t137 112t178.5 62t189.5 21h156q0 12 1 35t1.5 38t-1.5 36.5t-6 35.5t-13.5 29.5t-23 24t-35.5 14t-50 4.5q-63 -3 -98 -51.5t-33 -88.5h-367q-1 89 47 153.5t131 102.5q134 62 355 62q82 0 172 -34.5t151 -106.5q45 55 107 88.5t108.5 43t93.5 9.5 q154 0 262 -42.5t170.5 -126t90.5 -194.5t28 -260h-737q-4 -241 182 -241q166 0 187 141h368q-11 -177 -186 -283q-139 -84 -342 -84q-291 0 -399 221q-64 -124 -184 -172.5t-281 -48.5q-184 0 -299.5 85.5t-114.5 254.5zM442 330q0 -56 39 -95.5t94 -39.5q41 0 72 11.5 t50.5 34.5t32 49t18.5 62.5t8 66.5t2 70h-39.5h-41.5t-35.5 -1t-37 -3.5t-30 -6.5t-29.5 -11q-49 -25 -76 -56t-27 -81zM1120 645h361q0 89 -47 154q-51 71 -136 65q-93 -4 -131 -61t-47 -158z" />
<glyph unicode="&#xe7;" horiz-adv-x="1251" d="M86 520q0 118 32.5 212t86.5 155t128.5 101.5t155 57.5t170.5 17q279 0 416 -148q41 -43 64.5 -94.5t28.5 -81.5t8 -71h-381q0 78 -33.5 127t-104.5 49q-51 0 -86.5 -24.5t-54 -71t-26 -101t-7.5 -127.5q0 -97 12.5 -163t37 -101t53 -49t67.5 -14q37 0 64.5 15t41.5 35.5 t22 51.5t10 54t2 52h389q1 -82 -28 -154.5t-87 -132.5t-156.5 -97t-226.5 -42l-55 -102q42 6 69 6q99 0 151 -44t52 -107q0 -24 -7.5 -46.5t-27.5 -46.5t-50.5 -41.5t-80 -28.5t-112.5 -11q-138 0 -232 40l25 93q101 -45 190 -45q109 0 109 79q0 37 -31.5 56.5t-71.5 19.5 q-32 0 -77 -18l-48 41l95 160q-227 21 -361.5 158.5t-134.5 381.5z" />
<glyph unicode="&#xe8;" horiz-adv-x="1251" d="M76 498q0 267 135.5 417t411.5 150q104 0 186.5 -20t140 -57.5t96 -82t66.5 -102.5q33 -64 45 -146t12 -221h-737q0 -250 197 -250q77 0 123 39t53 111h358q-11 -94 -58 -164.5t-121.5 -112t-164 -62t-192.5 -20.5q-269 0 -410 133t-141 388zM219 1487h426l219 -297h-264 zM436 645h371q-2 27 -4.5 46t-14 54t-29.5 57.5t-53 40t-83 17.5q-169 0 -187 -215z" />
<glyph unicode="&#xe9;" horiz-adv-x="1251" d="M76 498q0 267 135.5 417t411.5 150q104 0 186.5 -20t140 -57.5t96 -82t66.5 -102.5q33 -64 45 -146t12 -221h-737q0 -250 197 -250q77 0 123 39t53 111h358q-11 -94 -58 -164.5t-121.5 -112t-164 -62t-192.5 -20.5q-269 0 -410 133t-141 388zM377 1190l227 297h418 l-375 -297h-270zM436 645h371q-2 27 -4.5 46t-14 54t-29.5 57.5t-53 40t-83 17.5q-169 0 -187 -215z" />
<glyph unicode="&#xea;" horiz-adv-x="1251" d="M76 498q0 267 135.5 417t411.5 150q104 0 186.5 -20t140 -57.5t96 -82t66.5 -102.5q33 -64 45 -146t12 -221h-737q0 -250 197 -250q77 0 123 39t53 111h358q-11 -94 -58 -164.5t-121.5 -112t-164 -62t-192.5 -20.5q-269 0 -410 133t-141 388zM201 1190l243 297h347 l245 -297h-266l-152 158l-151 -158h-266zM436 645h371q-2 27 -4.5 46t-14 54t-29.5 57.5t-53 40t-83 17.5q-169 0 -187 -215z" />
<glyph unicode="&#xeb;" horiz-adv-x="1251" d="M76 498q0 267 135.5 417t411.5 150q104 0 186.5 -20t140 -57.5t96 -82t66.5 -102.5q33 -64 45 -146t12 -221h-737q0 -250 197 -250q77 0 123 39t53 111h358q-11 -94 -58 -164.5t-121.5 -112t-164 -62t-192.5 -20.5q-269 0 -410 133t-141 388zM180 1190v297h350v-297h-350 zM436 645h371q-2 27 -4.5 46t-14 54t-29.5 57.5t-53 40t-83 17.5q-169 0 -187 -215zM719 1190v297h350v-297h-350z" />
<glyph unicode="&#xec;" horiz-adv-x="681" d="M-102 1487h426l219 -297h-264zM147 0v1028h390v-1028h-390z" />
<glyph unicode="&#xed;" horiz-adv-x="681" d="M141 1190l228 297h417l-374 -297h-271zM147 0v1028h390v-1028h-390z" />
<glyph unicode="&#xee;" horiz-adv-x="681" d="M-84 1190l244 297h346l246 -297h-267l-151 158l-152 -158h-266zM147 0v1028h390v-1028h-390z" />
<glyph unicode="&#xef;" horiz-adv-x="681" d="M-104 1190v297h350v-297h-350zM147 0v1028h390v-1028h-390zM434 1190v297h350v-297h-350z" />
<glyph unicode="&#xf0;" d="M86 475q0 102 28 187.5t76.5 144t113.5 99t138 59t152 18.5q87 0 138 -12.5t104 -42.5v8q-67 83 -132.5 129t-187.5 106l-131 -112l-119 57l117 98q-104 34 -168 48l152 266q175 -38 292 -84l111 92l94 -74l-80 -65q498 -258 498 -832q0 -129 -31.5 -231.5t-85.5 -170 t-131 -112t-163.5 -63.5t-186.5 -19q-98 0 -186 18.5t-163.5 58.5t-130.5 98.5t-86.5 143t-31.5 187.5zM485 475q0 -56 8.5 -104t29 -94t61.5 -72.5t100 -26.5t100 26.5t61.5 72.5t29 94t8.5 104q0 57 -8.5 105.5t-29 94.5t-61.5 72.5t-100 26.5t-100 -26.5t-61.5 -72.5 t-29 -94.5t-8.5 -105.5z" />
<glyph unicode="&#xf1;" d="M121 1028h385l4 -158q21 36 44.5 62.5t63 56t99 46t135.5 16.5q61 0 112 -10.5t87.5 -26.5t65.5 -43t47.5 -51.5t31.5 -61t19 -61.5t9.5 -63.5t4 -58t0.5 -52.5v-623h-385v590q0 22 -0.5 35t-3.5 39t-8.5 42.5t-17 37.5t-28 33t-42 21t-58.5 9q-41 0 -72.5 -13t-49 -36 t-29 -45t-15.5 -51t-5 -42.5t-1 -29.5v-590h-383v809zM166 1190q6 121 86 207q85 92 213 92q49 0 149 -29l158 -45q40 -12 64 -12q59 0 67 80h166q-11 -122 -92.5 -208.5t-194.5 -86.5q-37 0 -102 18l-168 49q-61 17 -88 17q-78 0 -98 -82h-160z" />
<glyph unicode="&#xf2;" d="M78 518q0 120 37.5 218.5t110 172t188.5 114t266 40.5q127 0 234 -32.5t188 -96.5t126.5 -167.5t45.5 -236.5q0 -257 -150 -407q-152 -148 -424 -148q-317 0 -475 152q-147 140 -147 391zM240 1487h426l219 -297h-264zM477 516q0 -157 49 -244q47 -82 150 -82 q48 0 85 20.5t58.5 52.5t35 77t18 87t4.5 89q0 328 -197 328q-203 0 -203 -328z" />
<glyph unicode="&#xf3;" d="M78 518q0 120 37.5 218.5t110 172t188.5 114t266 40.5q127 0 234 -32.5t188 -96.5t126.5 -167.5t45.5 -236.5q0 -257 -150 -407q-152 -148 -424 -148q-317 0 -475 152q-147 140 -147 391zM477 516q0 -157 49 -244q47 -82 150 -82q48 0 85 20.5t58.5 52.5t35 77t18 87 t4.5 89q0 328 -197 328q-203 0 -203 -328zM483 1190l228 297h417l-374 -297h-271z" />
<glyph unicode="&#xf4;" d="M78 518q0 120 37.5 218.5t110 172t188.5 114t266 40.5q127 0 234 -32.5t188 -96.5t126.5 -167.5t45.5 -236.5q0 -257 -150 -407q-152 -148 -424 -148q-317 0 -475 152q-147 140 -147 391zM283 1190l243 297h346l246 -297h-266l-152 158l-151 -158h-266zM477 516 q0 -157 49 -244q47 -82 150 -82q48 0 85 20.5t58.5 52.5t35 77t18 87t4.5 89q0 328 -197 328q-203 0 -203 -328z" />
<glyph unicode="&#xf5;" d="M78 518q0 120 37.5 218.5t110 172t188.5 114t266 40.5q127 0 234 -32.5t188 -96.5t126.5 -167.5t45.5 -236.5q0 -257 -150 -407q-152 -148 -424 -148q-317 0 -475 152q-147 140 -147 391zM178 1190q6 121 86 207q85 92 213 92q50 0 150 -29l157 -45q41 -12 64 -12 q59 0 67 80h166q-11 -123 -92 -209t-194 -86q-38 0 -103 18l-168 49q-61 17 -88 17q-78 0 -98 -82h-160zM477 516q0 -157 49 -244q47 -82 150 -82q48 0 85 20.5t58.5 52.5t35 77t18 87t4.5 89q0 328 -197 328q-203 0 -203 -328z" />
<glyph unicode="&#xf6;" d="M78 518q0 120 37.5 218.5t110 172t188.5 114t266 40.5q127 0 234 -32.5t188 -96.5t126.5 -167.5t45.5 -236.5q0 -257 -150 -407q-152 -148 -424 -148q-317 0 -475 152q-147 140 -147 391zM238 1190v297h350v-297h-350zM477 516q0 -157 49 -244q47 -82 150 -82 q48 0 85 20.5t58.5 52.5t35 77t18 87t4.5 89q0 328 -197 328q-203 0 -203 -328zM776 1190v297h350v-297h-350z" />
<glyph unicode="&#xf7;" horiz-adv-x="1351" d="M125 408v286h1102v-286h-1102zM514 4v309h324v-309h-324zM514 788v310h324v-310h-324z" />
<glyph unicode="&#xf8;" d="M86 514q0 111 31.5 202t86.5 154t130.5 106t163.5 63t186 20q191 0 330 -74l127 154l98 -76l-121 -148q164 -145 164 -401q0 -111 -31.5 -202t-86.5 -154t-130.5 -106t-163.5 -63t-186 -20q-172 0 -299 62l-147 -178l-97 73l138 166q-193 142 -193 422zM485 514 q0 -85 17 -149l325 393q-49 76 -143 76q-59 0 -100 -28.5t-61.5 -78t-29 -101t-8.5 -112.5zM563 246q42 -51 121 -51q59 0 100 28.5t61.5 77.5t29 100.5t8.5 112.5q0 54 -9 109z" />
<glyph unicode="&#xf9;" d="M131 449v579h383v-600q0 -26 1 -43.5t9 -50.5t23 -53.5t46 -37t75 -16.5q39 0 68 10.5t46 31t27.5 39t14 47t4.5 42t1 35.5v596h385v-850q6 -125 7 -178h-379l-8 160q-30 -48 -65.5 -82t-67 -52.5t-69 -28.5t-63.5 -12.5t-59 -2.5q-74 0 -133 16t-98 41.5t-67.5 65 t-43.5 77.5t-24 89t-11 89.5t-2 88.5zM240 1487h426l219 -297h-264z" />
<glyph unicode="&#xfa;" d="M131 449v579h383v-600q0 -26 1 -43.5t9 -50.5t23 -53.5t46 -37t75 -16.5q39 0 68 10.5t46 31t27.5 39t14 47t4.5 42t1 35.5v596h385v-850q6 -125 7 -178h-379l-8 160q-30 -48 -65.5 -82t-67 -52.5t-69 -28.5t-63.5 -12.5t-59 -2.5q-74 0 -133 16t-98 41.5t-67.5 65 t-43.5 77.5t-24 89t-11 89.5t-2 88.5zM483 1190l228 297h417l-374 -297h-271z" />
<glyph unicode="&#xfb;" d="M131 449v579h383v-600q0 -26 1 -43.5t9 -50.5t23 -53.5t46 -37t75 -16.5q39 0 68 10.5t46 31t27.5 39t14 47t4.5 42t1 35.5v596h385v-850q6 -125 7 -178h-379l-8 160q-30 -48 -65.5 -82t-67 -52.5t-69 -28.5t-63.5 -12.5t-59 -2.5q-74 0 -133 16t-98 41.5t-67.5 65 t-43.5 77.5t-24 89t-11 89.5t-2 88.5zM258 1190l244 297h346l246 -297h-267l-151 158l-152 -158h-266z" />
<glyph unicode="&#xfc;" d="M131 449v579h383v-600q0 -26 1 -43.5t9 -50.5t23 -53.5t46 -37t75 -16.5q39 0 68 10.5t46 31t27.5 39t14 47t4.5 42t1 35.5v596h385v-850q6 -125 7 -178h-379l-8 160q-30 -48 -65.5 -82t-67 -52.5t-69 -28.5t-63.5 -12.5t-59 -2.5q-74 0 -133 16t-98 41.5t-67.5 65 t-43.5 77.5t-24 89t-11 89.5t-2 88.5zM238 1190v297h350v-297h-350zM776 1190v297h350v-297h-350z" />
<glyph unicode="&#xfd;" horiz-adv-x="1251" d="M16 1028h416l205 -715l223 715h359l-560 -1417h-358l145 356zM426 1190l227 297h418l-375 -297h-270z" />
<glyph unicode="&#xfe;" d="M115 -393v1872h389v-596h4q59 91 139.5 133.5t194.5 42.5q89 0 162.5 -29.5t124 -79.5t85 -118.5t50.5 -144.5t16 -159q0 -115 -29.5 -214.5t-87 -177.5t-151 -122.5t-213.5 -44.5q-83 0 -159 42t-132 112h-4v-516h-389zM504 514q0 -319 188 -319q189 0 189 319 q0 320 -189 320q-188 0 -188 -320z" />
<glyph unicode="&#xff;" horiz-adv-x="1251" d="M16 1028h416l205 -715l223 715h359l-560 -1417h-358l145 356zM180 1190v297h350v-297h-350zM719 1190v297h350v-297h-350z" />
<glyph unicode="&#x152;" horiz-adv-x="2048" d="M59 750q0 141 45 273t140.5 240.5t226.5 159.5q91 36 182.5 46t223.5 10h1052v-287h-551v-305h508v-287h-508v-313h570v-287h-1127q-228 -1 -400.5 90.5t-267 262t-94.5 397.5zM489 741q0 -71 11.5 -137t38.5 -129t67.5 -109.5t103 -75t140.5 -28.5q17 0 37 2t44.5 5.5 t37.5 4.5v936q-5 1 -50.5 7t-68.5 6q-97 0 -168.5 -37t-113 -104t-60.5 -151.5t-19 -189.5z" />
<glyph unicode="&#x153;" horiz-adv-x="2048" d="M78 514q0 111 31.5 202t86.5 154t130.5 106t163.5 63t186 20q264 0 422 -168q68 92 157 130t175 38q154 0 262 -42.5t170.5 -126.5t90 -194.5t27.5 -259.5h-737q-4 -241 182 -241q166 0 187 141h368q-11 -177 -186 -283q-139 -84 -342 -84q-132 0 -232 50t-151 135 q-92 -106 -187.5 -145.5t-205.5 -39.5q-98 0 -186 20t-163.5 63t-130.5 106t-86.5 154t-31.5 202zM477 514q0 -61 8.5 -112.5t29 -100.5t61.5 -77.5t100 -28.5t100 28.5t61 78t28.5 100.5t8.5 112q0 48 -4.5 89.5t-18 85.5t-35 74.5t-57.5 50.5t-83 20q-59 0 -100 -28.5 t-61.5 -78t-29 -101t-8.5 -112.5zM1251 645h361q0 89 -47 154q-51 71 -135 65q-93 -4 -131.5 -61t-47.5 -158z" />
<glyph unicode="&#x178;" horiz-adv-x="1593" d="M12 1479h475l324 -621l334 621h422l-578 -957v-522h-414v541zM352 1640v297h350v-297h-350zM891 1640v297h350v-297h-350z" />
<glyph unicode="&#x2c6;" horiz-adv-x="681" d="M-84 1190l244 297h346l246 -297h-267l-151 158l-152 -158h-266z" />
<glyph unicode="&#x2dc;" horiz-adv-x="681" d="M-115 1190q6 121 86 207q85 92 213 92q50 0 150 -29l158 -45q41 -12 63 -12q60 0 68 80h165q-11 -123 -92 -209t-194 -86q-38 0 -103 18l-168 49q-61 17 -88 17q-77 0 -98 -82h-160z" />
<glyph unicode="&#x2000;" horiz-adv-x="1009" />
<glyph unicode="&#x2001;" horiz-adv-x="2019" />
<glyph unicode="&#x2002;" horiz-adv-x="1009" />
<glyph unicode="&#x2003;" horiz-adv-x="2019" />
<glyph unicode="&#x2004;" horiz-adv-x="673" />
<glyph unicode="&#x2005;" horiz-adv-x="504" />
<glyph unicode="&#x2006;" horiz-adv-x="336" />
<glyph unicode="&#x2007;" horiz-adv-x="336" />
<glyph unicode="&#x2008;" horiz-adv-x="252" />
<glyph unicode="&#x2009;" horiz-adv-x="403" />
<glyph unicode="&#x200a;" horiz-adv-x="112" />
<glyph unicode="&#x2010;" horiz-adv-x="681" d="M45 418v244h582v-244h-582z" />
<glyph unicode="&#x2011;" horiz-adv-x="681" d="M45 418v244h582v-244h-582z" />
<glyph unicode="&#x2012;" horiz-adv-x="681" d="M45 418v244h582v-244h-582z" />
<glyph unicode="&#x2013;" horiz-adv-x="1024" d="M0 418v260h1024v-260h-1024z" />
<glyph unicode="&#x2014;" horiz-adv-x="2048" d="M266 418v260h1516v-260h-1516z" />
<glyph unicode="&#x2018;" horiz-adv-x="681" d="M59 934l244 545h275l-138 -545h-381z" />
<glyph unicode="&#x2019;" horiz-adv-x="681" d="M80 934l137 545h383l-244 -545h-276z" />
<glyph unicode="&#x201a;" horiz-adv-x="681" d="M47 -199l123 484h352l-215 -484h-260z" />
<glyph unicode="&#x201c;" d="M186 934l246 545h275l-138 -545h-383zM682 934l246 545h274l-137 -545h-383z" />
<glyph unicode="&#x201d;" d="M190 934l138 545h381l-244 -545h-275zM686 934l137 545h381l-243 -545h-275z" />
<glyph unicode="&#x201e;" d="M195 -199l122 484h351l-213 -484h-260zM680 -199l123 484h352l-215 -484h-260z" />
<glyph unicode="&#x2022;" horiz-adv-x="1024" d="M141 739q0 155 109 263t262 108t262 -109t109 -262q0 -152 -108.5 -260t-262.5 -108t-262.5 108t-108.5 260z" />
<glyph unicode="&#x2026;" horiz-adv-x="2048" d="M162 0v305h360v-305h-360zM844 0v305h360v-305h-360zM1526 0v305h360v-305h-360z" />
<glyph unicode="&#x202f;" horiz-adv-x="403" />
<glyph unicode="&#x2039;" horiz-adv-x="681" d="M53 522l254 398h318l-244 -402l244 -397h-316z" />
<glyph unicode="&#x203a;" horiz-adv-x="681" d="M53 121l244 401l-244 398h316l256 -402l-254 -397h-318z" />
<glyph unicode="&#x205f;" horiz-adv-x="504" />
<glyph unicode="&#x20ac;" d="M0 432l86 221h115q0 10 -1 27t-1 27q0 7 1 26.5t1 26.5h-191l86 221h133q53 220 196 349.5t378 129.5q468 0 536 -383h-383q-12 62 -45 86q-35 27 -106 27q-81 0 -126.5 -57.5t-60.5 -151.5h474l-88 -221h-404v-53v-54h363l-89 -221h-253q15 -84 61 -137t123 -53 q42 0 72.5 9.5t47 27t24.5 32.5t14 35h387q-39 -187 -193 -285q-139 -90 -354 -90q-229 0 -372 124.5t-198 336.5h-233z" />
<glyph unicode="&#x2122;" horiz-adv-x="1945" d="M127 1335v144h655v-144h-229v-596h-205v596h-221zM844 739v740h317l119 -502l117 502h315v-740h-186l8 623l-174 -623h-182l-162 623v-623h-172z" />
<glyph unicode="&#xe000;" horiz-adv-x="1024" d="M0 0v1024h1024v-1024h-1024z" />
</font>
</defs>
</svg>
